<svg width="82" height="27" viewBox="0 0 82 27" fill="none" xmlns="http://www.w3.org/2000/svg">
<path d="M7.28 3.008C9.056 3.008 10.608 3.368 11.936 4.088C13.28 4.808 14.312 5.808 15.032 7.088C15.752 8.368 16.112 9.824 16.112 11.456C16.112 13.072 15.752 14.528 15.032 15.824C14.312 17.12 13.28 18.144 11.936 18.896C10.608 19.632 9.056 20 7.28 20H0.2V3.008H7.28ZM6.8 15.248C8 15.248 8.952 14.92 9.656 14.264C10.36 13.608 10.712 12.672 10.712 11.456C10.712 10.24 10.36 9.304 9.656 8.648C8.952 7.992 8 7.664 6.8 7.664H5.528V15.248H6.8ZM20.7239 5.384C19.7959 5.384 19.0519 5.136 18.4919 4.64C17.9319 4.144 17.6519 3.52 17.6519 2.768C17.6519 2 17.9319 1.368 18.4919 0.871999C19.0519 0.359999 19.7959 0.103999 20.7239 0.103999C21.6359 0.103999 22.3719 0.359999 22.9319 0.871999C23.4919 1.368 23.7719 2 23.7719 2.768C23.7719 3.52 23.4919 4.144 22.9319 4.64C22.3719 5.136 21.6359 5.384 20.7239 5.384ZM23.3639 6.464V20H18.0359V6.464H23.3639ZM30.6423 6.296C31.5223 6.296 32.2823 6.48 32.9223 6.848C33.5623 7.2 34.0503 7.688 34.3863 8.312V6.464H39.6903V19.76C39.6903 21.024 39.4583 22.176 38.9943 23.216C38.5303 24.256 37.7783 25.088 36.7383 25.712C35.7143 26.336 34.3943 26.648 32.7783 26.648C30.6023 26.648 28.8743 26.136 27.5943 25.112C26.3303 24.104 25.6103 22.728 25.4343 20.984H30.6663C30.8103 21.688 31.3863 22.04 32.3943 22.04C33.0183 22.04 33.5063 21.88 33.8583 21.56C34.2103 21.24 34.3863 20.64 34.3863 19.76V18.152C34.0503 18.776 33.5623 19.272 32.9223 19.64C32.2823 19.992 31.5223 20.168 30.6423 20.168C29.5863 20.168 28.6343 19.896 27.7863 19.352C26.9383 18.792 26.2663 17.992 25.7703 16.952C25.2903 15.896 25.0503 14.656 25.0503 13.232C25.0503 11.808 25.2903 10.576 25.7703 9.536C26.2663 8.48 26.9383 7.68 27.7863 7.136C28.6343 6.576 29.5863 6.296 30.6423 6.296ZM34.3863 13.232C34.3863 12.512 34.2023 11.952 33.8343 11.552C33.4663 11.152 32.9943 10.952 32.4183 10.952C31.8423 10.952 31.3703 11.152 31.0023 11.552C30.6343 11.952 30.4503 12.512 30.4503 13.232C30.4503 13.952 30.6343 14.512 31.0023 14.912C31.3703 15.312 31.8423 15.512 32.4183 15.512C32.9943 15.512 33.4663 15.312 33.8343 14.912C34.2023 14.512 34.3863 13.952 34.3863 13.232ZM44.7708 5.384C43.8428 5.384 43.0988 5.136 42.5388 4.64C41.9788 4.144 41.6988 3.52 41.6988 2.768C41.6988 2 41.9788 1.368 42.5388 0.871999C43.0988 0.359999 43.8428 0.103999 44.7708 0.103999C45.6828 0.103999 46.4188 0.359999 46.9788 0.871999C47.5388 1.368 47.8188 2 47.8188 2.768C47.8188 3.52 47.5388 4.144 46.9788 4.64C46.4188 5.136 45.6828 5.384 44.7708 5.384ZM47.4108 6.464V20H42.0828V6.464H47.4108ZM58.2412 15.464V20H56.2252C52.5132 20 50.6572 18.152 50.6572 14.456V10.904H48.9772V6.464H50.6572V3.2H55.9852V6.464H58.1932V10.904H55.9852V14.552C55.9852 14.872 56.0572 15.104 56.2012 15.248C56.3612 15.392 56.6172 15.464 56.9692 15.464H58.2412ZM59.5503 13.232C59.5503 11.808 59.7903 10.576 60.2703 9.536C60.7663 8.48 61.4383 7.68 62.2863 7.136C63.1343 6.576 64.0863 6.296 65.1423 6.296C66.0223 6.296 66.7823 6.48 67.4223 6.848C68.0623 7.2 68.5503 7.688 68.8863 8.312V6.464H74.1903V20H68.8863V18.152C68.5503 18.776 68.0623 19.272 67.4223 19.64C66.7823 19.992 66.0223 20.168 65.1423 20.168C64.0863 20.168 63.1343 19.896 62.2863 19.352C61.4383 18.792 60.7663 17.992 60.2703 16.952C59.7903 15.896 59.5503 14.656 59.5503 13.232ZM68.8863 13.232C68.8863 12.512 68.7023 11.952 68.3343 11.552C67.9663 11.152 67.4943 10.952 66.9183 10.952C66.3423 10.952 65.8703 11.152 65.5023 11.552C65.1343 11.952 64.9503 12.512 64.9503 13.232C64.9503 13.952 65.1343 14.512 65.5023 14.912C65.8703 15.312 66.3423 15.512 66.9183 15.512C67.4943 15.512 67.9663 15.312 68.3343 14.912C68.7023 14.512 68.8863 13.952 68.8863 13.232ZM81.9108 2.24V20H76.5828V2.24H81.9108Z" fill="white"/>
</svg>
