<svg width="371" height="373" viewBox="0 0 371 373" fill="none" xmlns="http://www.w3.org/2000/svg">
<g filter="url(#filter0_i)">
<circle cx="181" cy="247" r="109" fill="url(#paint0_linear)" fill-opacity="0.4"/>
</g>
<g filter="url(#filter1_b)">
<circle cx="181" cy="192" r="181" fill="white" fill-opacity="0.3"/>
<circle cx="181" cy="192" r="180.5" stroke="#5FE07C" stroke-opacity="0.2"/>
</g>
<g filter="url(#filter2_b)">
<circle cx="181" cy="192" r="151" fill="white" fill-opacity="0.3"/>
<circle cx="181" cy="192" r="150.5" stroke="#5FE07C" stroke-opacity="0.2"/>
</g>
<g filter="url(#filter3_i)">
<circle cx="315.439" cy="67.1058" r="12.2667" fill="url(#paint1_linear)"/>
</g>
<g filter="url(#filter4_i)">
<circle cx="353.682" cy="259.765" r="17.3176" fill="url(#paint2_linear)"/>
</g>
<g filter="url(#filter5_i)">
<circle cx="43.4077" cy="12.9882" r="12.9882" fill="url(#paint3_linear)"/>
</g>
<g filter="url(#filter6_i)">
<circle cx="49.1805" cy="135.655" r="7.21569" fill="url(#paint4_linear)"/>
</g>
<g filter="url(#filter7_i)">
<circle cx="14.5451" cy="242.447" r="11.5451" fill="url(#paint5_linear)"/>
</g>
<g filter="url(#filter8_i)">
<path fill-rule="evenodd" clip-rule="evenodd" d="M283.54 68.4658C284.043 68.9682 284.373 69.6166 284.485 70.3182C285.871 86.706 284.458 103.21 280.306 119.124L233.321 71.6327C249.092 67.5237 265.449 66.1331 281.688 67.5207C282.389 67.6326 283.038 67.9634 283.54 68.4658ZM163.719 117.101L118.217 189.837C117.81 190.484 117.635 191.25 117.721 192.01C117.807 192.769 118.148 193.477 118.689 194.017L157.989 233.317C158.301 233.636 158.674 233.889 159.084 234.063C159.495 234.236 159.936 234.327 160.382 234.329C161.018 234.332 161.641 234.144 162.169 233.789L235.141 188.085C255.711 172.683 270.836 151.123 278.317 126.539L225.906 73.6888C201.076 81.1543 179.285 96.3664 163.719 117.101Z" fill="url(#paint6_linear)"/>
</g>
<g filter="url(#filter9_bdii)">
<path fill-rule="evenodd" clip-rule="evenodd" d="M123.634 191.4C123.66 191.374 123.664 191.333 123.643 191.303C123.624 191.274 123.626 191.236 123.649 191.21C123.944 190.878 124.302 190.606 124.703 190.413C125.121 190.21 125.577 190.097 126.041 190.079C126.505 190.061 126.968 190.139 127.401 190.308C127.833 190.478 128.226 190.735 128.554 191.063C128.883 191.392 129.14 191.785 129.309 192.217C129.479 192.65 129.557 193.113 129.539 193.577C129.521 194.041 129.407 194.496 129.205 194.915C129.003 195.333 128.716 195.705 128.363 196.007L120.847 203.523C120.25 204.187 119.413 204.587 118.521 204.635C117.855 204.633 117.204 204.432 116.651 204.06C116.099 203.687 115.669 203.159 115.416 202.542C115.164 201.925 115.1 201.247 115.233 200.594C115.365 199.94 115.689 199.341 116.162 198.872L123.634 191.4ZM87.5462 258.631L110.735 235.341C111.37 234.693 112.236 234.323 113.143 234.314C114.05 234.304 114.924 234.655 115.572 235.29C116.22 235.925 116.59 236.791 116.599 237.698C116.609 238.605 116.257 239.479 115.623 240.127L92.2986 263.417C91.6639 264.047 90.8049 264.4 89.9105 264.397C89.0161 264.393 88.1595 264.035 87.5293 263.4C86.8991 262.766 86.5468 261.907 86.55 261.012C86.5532 260.118 86.9115 259.261 87.5462 258.631ZM137.335 210.997C137.356 211.027 137.352 211.068 137.326 211.094L129.854 218.566C129.381 219.035 129.057 219.634 128.925 220.288C128.792 220.941 128.856 221.619 129.108 222.236C129.361 222.853 129.791 223.381 130.343 223.753C130.896 224.126 131.547 224.326 132.214 224.329C133.106 224.281 133.942 223.881 134.539 223.217L142.056 215.701C142.408 215.399 142.695 215.027 142.897 214.609C143.1 214.19 143.213 213.735 143.231 213.271C143.249 212.807 143.171 212.344 143.001 211.911C142.832 211.479 142.575 211.086 142.246 210.757C141.918 210.429 141.525 210.172 141.093 210.002C140.66 209.833 140.197 209.755 139.733 209.773C139.269 209.791 138.813 209.904 138.395 210.107C137.995 210.3 137.636 210.572 137.341 210.904C137.318 210.93 137.316 210.968 137.335 210.997ZM155.183 222.947C155.208 222.922 155.247 222.918 155.277 222.938C155.306 222.957 155.345 222.953 155.37 222.929C156 222.325 156.841 221.989 157.715 221.992C158.61 221.995 159.466 222.353 160.096 222.988C160.727 223.623 161.079 224.482 161.076 225.376C161.073 226.271 160.714 227.127 160.079 227.757L152.563 235.274C151.935 235.896 151.088 236.247 150.204 236.251C149.76 236.254 149.32 236.169 148.91 236.001C148.499 235.833 148.126 235.586 147.811 235.274C147.495 234.96 147.244 234.587 147.073 234.177C146.902 233.766 146.814 233.325 146.814 232.88C146.814 232.436 146.902 231.995 147.073 231.584C147.244 231.174 147.495 230.801 147.811 230.487L155.183 222.947ZM133.149 245.014L119.296 258.833C118.98 259.147 118.73 259.52 118.559 259.93C118.387 260.341 118.299 260.782 118.299 261.227C118.299 261.672 118.387 262.112 118.559 262.523C118.73 262.934 118.98 263.306 119.296 263.62C119.611 263.932 119.985 264.179 120.395 264.347C120.806 264.515 121.246 264.6 121.689 264.597C122.133 264.6 122.573 264.515 122.983 264.347C123.394 264.179 123.768 263.932 124.083 263.62L137.902 249.767C138.454 249.122 138.742 248.293 138.71 247.444C138.677 246.596 138.325 245.791 137.725 245.191C137.125 244.591 136.32 244.239 135.472 244.206C134.623 244.174 133.794 244.462 133.149 245.014ZM83.1806 230.34L97.0335 216.521C97.6783 215.969 98.5077 215.68 99.356 215.713C100.204 215.746 101.009 216.097 101.609 216.698C102.209 217.298 102.561 218.102 102.594 218.951C102.627 219.799 102.338 220.628 101.786 221.273L87.9668 235.126C87.6518 235.439 87.2783 235.686 86.8676 235.853C86.457 236.021 86.0173 236.106 85.5737 236.104C85.1301 236.106 84.6904 236.021 84.2797 235.853C83.869 235.686 83.4955 235.439 83.1806 235.126C82.8647 234.813 82.6139 234.44 82.4428 234.029C82.2717 233.619 82.1836 233.178 82.1836 232.733C82.1836 232.288 82.2717 231.848 82.4428 231.437C82.6139 231.026 82.8647 230.653 83.1806 230.34Z" fill="url(#paint7_linear)" fill-opacity="0.1"/>
</g>
<g filter="url(#filter10_i)">
<path fill-rule="evenodd" clip-rule="evenodd" d="M283.54 68.4658C284.043 68.9682 284.373 69.6166 284.485 70.3182C285.871 86.706 284.458 103.21 280.306 119.124L233.321 71.6327C249.092 67.5237 265.449 66.1331 281.688 67.5207C282.389 67.6326 283.038 67.9634 283.54 68.4658ZM163.719 117.101L118.217 189.837C117.81 190.484 117.635 191.25 117.721 192.01C117.807 192.769 118.148 193.477 118.689 194.017L157.989 233.317C158.301 233.636 158.674 233.889 159.084 234.063C159.495 234.236 159.936 234.327 160.382 234.329C161.018 234.332 161.641 234.144 162.169 233.789L235.141 188.085C255.711 172.683 270.836 151.123 278.317 126.539L225.906 73.6888C201.076 81.1543 179.285 96.3664 163.719 117.101Z" fill="url(#paint8_linear)"/>
</g>
<g filter="url(#filter11_biii)">
<path d="M176.117 221.422C174.566 222.701 173.949 224.78 174.43 226.732C178.413 242.915 176.294 260.045 168.407 274.814C168.001 275.472 167.834 276.25 167.934 277.016C168.034 277.783 168.394 278.492 168.955 279.025C169.314 279.357 169.741 279.608 170.207 279.758C170.673 279.909 171.166 279.957 171.652 279.897C172.212 279.827 172.746 279.618 173.204 279.288C193.114 265.008 234.582 229.692 228.428 187.132C227.91 183.547 223.688 182.182 220.894 184.487L176.117 221.422Z" fill="url(#paint9_linear)" fill-opacity="0.09"/>
<path d="M176.117 221.422C174.566 222.701 173.949 224.78 174.43 226.732C178.413 242.915 176.294 260.045 168.407 274.814C168.001 275.472 167.834 276.25 167.934 277.016C168.034 277.783 168.394 278.492 168.955 279.025C169.314 279.357 169.741 279.608 170.207 279.758C170.673 279.909 171.166 279.957 171.652 279.897C172.212 279.827 172.746 279.618 173.204 279.288C193.114 265.008 234.582 229.692 228.428 187.132C227.91 183.547 223.688 182.182 220.894 184.487L176.117 221.422Z" fill="#506943" fill-opacity="0.05"/>
</g>
<g filter="url(#filter12_biii)">
<path d="M132.067 179.373C130.752 180.893 128.659 181.463 126.719 180.937C110.632 176.583 93.4578 178.307 78.5113 185.853C77.8438 186.243 77.0624 186.392 76.2981 186.275C75.5339 186.157 74.8332 185.78 74.3137 185.208C73.9895 184.841 73.7491 184.408 73.6092 183.939C73.4692 183.47 73.4332 182.976 73.5035 182.492C73.5864 181.933 73.8084 181.404 74.1489 180.954C88.883 161.377 125.143 120.733 167.551 127.864C171.123 128.465 172.39 132.717 170.021 135.458L132.067 179.373Z" fill="url(#paint10_linear)" fill-opacity="0.09"/>
<path d="M132.067 179.373C130.752 180.893 128.659 181.463 126.719 180.937C110.632 176.583 93.4578 178.307 78.5113 185.853C77.8438 186.243 77.0624 186.392 76.2981 186.275C75.5339 186.157 74.8332 185.78 74.3137 185.208C73.9895 184.841 73.7491 184.408 73.6092 183.939C73.4692 183.47 73.4332 182.976 73.5035 182.492C73.5864 181.933 73.8084 181.404 74.1489 180.954C88.883 161.377 125.143 120.733 167.551 127.864C171.123 128.465 172.39 132.717 170.021 135.458L132.067 179.373Z" fill="#506943" fill-opacity="0.05"/>
</g>
<g filter="url(#filter13_bdii)">
<path fill-rule="evenodd" clip-rule="evenodd" d="M123.634 191.4C123.66 191.374 123.664 191.333 123.643 191.303C123.624 191.274 123.626 191.236 123.649 191.21C123.944 190.878 124.302 190.606 124.703 190.413C125.121 190.21 125.577 190.097 126.041 190.079C126.505 190.061 126.968 190.139 127.401 190.308C127.833 190.478 128.226 190.735 128.554 191.063C128.883 191.392 129.14 191.785 129.309 192.217C129.479 192.65 129.557 193.113 129.539 193.577C129.521 194.041 129.407 194.496 129.205 194.915C129.003 195.333 128.716 195.705 128.363 196.007L120.847 203.523C120.25 204.187 119.413 204.587 118.521 204.635C117.855 204.633 117.204 204.432 116.651 204.06C116.099 203.687 115.669 203.159 115.416 202.542C115.164 201.925 115.1 201.247 115.233 200.594C115.365 199.94 115.689 199.341 116.162 198.872L123.634 191.4ZM87.5462 258.631L110.735 235.341C111.37 234.693 112.236 234.323 113.143 234.314C114.05 234.304 114.924 234.655 115.572 235.29C116.22 235.925 116.59 236.791 116.599 237.698C116.609 238.605 116.257 239.479 115.623 240.127L92.2986 263.417C91.6639 264.047 90.8049 264.4 89.9105 264.397C89.0161 264.393 88.1595 264.035 87.5293 263.4C86.8991 262.766 86.5468 261.907 86.55 261.012C86.5532 260.118 86.9115 259.261 87.5462 258.631ZM137.335 210.997C137.356 211.027 137.352 211.068 137.326 211.094L129.854 218.566C129.381 219.035 129.057 219.634 128.925 220.288C128.792 220.941 128.856 221.619 129.108 222.236C129.361 222.853 129.791 223.381 130.343 223.753C130.896 224.126 131.547 224.326 132.214 224.329C133.106 224.281 133.942 223.881 134.539 223.217L142.056 215.701C142.408 215.399 142.695 215.027 142.897 214.609C143.1 214.19 143.213 213.735 143.231 213.271C143.249 212.807 143.171 212.344 143.001 211.911C142.832 211.479 142.575 211.086 142.246 210.757C141.918 210.429 141.525 210.172 141.093 210.002C140.66 209.833 140.197 209.755 139.733 209.773C139.269 209.791 138.813 209.904 138.395 210.107C137.995 210.3 137.636 210.572 137.341 210.904C137.318 210.93 137.316 210.968 137.335 210.997ZM155.183 222.947C155.208 222.922 155.247 222.918 155.277 222.938C155.306 222.957 155.345 222.953 155.37 222.929C156 222.325 156.841 221.989 157.715 221.992C158.61 221.995 159.466 222.353 160.096 222.988C160.727 223.623 161.079 224.482 161.076 225.376C161.073 226.271 160.714 227.127 160.079 227.757L152.563 235.274C151.935 235.896 151.088 236.247 150.204 236.251C149.76 236.254 149.32 236.169 148.91 236.001C148.499 235.833 148.126 235.586 147.811 235.274C147.495 234.96 147.244 234.587 147.073 234.177C146.902 233.766 146.814 233.325 146.814 232.88C146.814 232.436 146.902 231.995 147.073 231.584C147.244 231.174 147.495 230.801 147.811 230.487L155.183 222.947ZM133.149 245.014L119.296 258.833C118.98 259.147 118.73 259.52 118.559 259.93C118.387 260.341 118.299 260.782 118.299 261.227C118.299 261.672 118.387 262.112 118.559 262.523C118.73 262.934 118.98 263.306 119.296 263.62C119.611 263.932 119.985 264.179 120.395 264.347C120.806 264.515 121.246 264.6 121.689 264.597C122.133 264.6 122.573 264.515 122.983 264.347C123.394 264.179 123.768 263.932 124.083 263.62L137.902 249.767C138.454 249.122 138.742 248.293 138.71 247.444C138.677 246.596 138.325 245.791 137.725 245.191C137.125 244.591 136.32 244.239 135.472 244.206C134.623 244.174 133.794 244.462 133.149 245.014ZM83.1806 230.34L97.0335 216.521C97.6783 215.969 98.5077 215.68 99.356 215.713C100.204 215.746 101.009 216.097 101.609 216.698C102.209 217.298 102.561 218.102 102.594 218.951C102.627 219.799 102.338 220.628 101.786 221.273L87.9668 235.126C87.6518 235.439 87.2783 235.686 86.8676 235.853C86.457 236.021 86.0173 236.106 85.5737 236.104C85.1301 236.106 84.6904 236.021 84.2797 235.853C83.869 235.686 83.4955 235.439 83.1806 235.126C82.8647 234.813 82.6139 234.44 82.4428 234.029C82.2717 233.619 82.1836 233.178 82.1836 232.733C82.1836 232.288 82.2717 231.848 82.4428 231.437C82.6139 231.026 82.8647 230.653 83.1806 230.34Z" fill="url(#paint11_linear)" fill-opacity="0.1"/>
</g>
<g filter="url(#filter14_bdii)">
<circle cx="221.356" cy="127.251" r="25.4583" fill="url(#paint12_linear)" fill-opacity="0.21"/>
<circle cx="221.356" cy="127.251" r="25.4583" fill="#D8FFC5" fill-opacity="0.26"/>
</g>
<defs>
<filter id="filter0_i" x="72" y="135" width="227" height="221" filterUnits="userSpaceOnUse" color-interpolation-filters="sRGB">
<feFlood flood-opacity="0" result="BackgroundImageFix"/>
<feBlend mode="normal" in="SourceGraphic" in2="BackgroundImageFix" result="shape"/>
<feColorMatrix in="SourceAlpha" type="matrix" values="0 0 0 0 0 0 0 0 0 0 0 0 0 0 0 0 0 0 127 0" result="hardAlpha"/>
<feOffset dx="9" dy="-3"/>
<feGaussianBlur stdDeviation="10"/>
<feComposite in2="hardAlpha" operator="arithmetic" k2="-1" k3="1"/>
<feColorMatrix type="matrix" values="0 0 0 0 0 0 0 0 0 0 0 0 0 0 0 0 0 0 0.17 0"/>
<feBlend mode="normal" in2="shape" result="effect1_innerShadow"/>
</filter>
<filter id="filter1_b" x="-54" y="-43" width="470" height="470" filterUnits="userSpaceOnUse" color-interpolation-filters="sRGB">
<feFlood flood-opacity="0" result="BackgroundImageFix"/>
<feGaussianBlur in="BackgroundImage" stdDeviation="27"/>
<feComposite in2="SourceAlpha" operator="in" result="effect1_backgroundBlur"/>
<feBlend mode="normal" in="SourceGraphic" in2="effect1_backgroundBlur" result="shape"/>
</filter>
<filter id="filter2_b" x="-24" y="-13" width="410" height="410" filterUnits="userSpaceOnUse" color-interpolation-filters="sRGB">
<feFlood flood-opacity="0" result="BackgroundImageFix"/>
<feGaussianBlur in="BackgroundImage" stdDeviation="27"/>
<feComposite in2="SourceAlpha" operator="in" result="effect1_backgroundBlur"/>
<feBlend mode="normal" in="SourceGraphic" in2="effect1_backgroundBlur" result="shape"/>
</filter>
<filter id="filter3_i" x="303.172" y="51.8391" width="33.5333" height="27.5333" filterUnits="userSpaceOnUse" color-interpolation-filters="sRGB">
<feFlood flood-opacity="0" result="BackgroundImageFix"/>
<feBlend mode="normal" in="SourceGraphic" in2="BackgroundImageFix" result="shape"/>
<feColorMatrix in="SourceAlpha" type="matrix" values="0 0 0 0 0 0 0 0 0 0 0 0 0 0 0 0 0 0 127 0" result="hardAlpha"/>
<feOffset dx="9" dy="-3"/>
<feGaussianBlur stdDeviation="10"/>
<feComposite in2="hardAlpha" operator="arithmetic" k2="-1" k3="1"/>
<feColorMatrix type="matrix" values="0 0 0 0 0 0 0 0 0 0 0 0 0 0 0 0 0 0 0.17 0"/>
<feBlend mode="normal" in2="shape" result="effect1_innerShadow"/>
</filter>
<filter id="filter4_i" x="336.365" y="239.447" width="43.6353" height="37.6353" filterUnits="userSpaceOnUse" color-interpolation-filters="sRGB">
<feFlood flood-opacity="0" result="BackgroundImageFix"/>
<feBlend mode="normal" in="SourceGraphic" in2="BackgroundImageFix" result="shape"/>
<feColorMatrix in="SourceAlpha" type="matrix" values="0 0 0 0 0 0 0 0 0 0 0 0 0 0 0 0 0 0 127 0" result="hardAlpha"/>
<feOffset dx="9" dy="-3"/>
<feGaussianBlur stdDeviation="10"/>
<feComposite in2="hardAlpha" operator="arithmetic" k2="-1" k3="1"/>
<feColorMatrix type="matrix" values="0 0 0 0 0 0 0 0 0 0 0 0 0 0 0 0 0 0 0.17 0"/>
<feBlend mode="normal" in2="shape" result="effect1_innerShadow"/>
</filter>
<filter id="filter5_i" x="30.4194" y="-3" width="34.9765" height="28.9765" filterUnits="userSpaceOnUse" color-interpolation-filters="sRGB">
<feFlood flood-opacity="0" result="BackgroundImageFix"/>
<feBlend mode="normal" in="SourceGraphic" in2="BackgroundImageFix" result="shape"/>
<feColorMatrix in="SourceAlpha" type="matrix" values="0 0 0 0 0 0 0 0 0 0 0 0 0 0 0 0 0 0 127 0" result="hardAlpha"/>
<feOffset dx="9" dy="-3"/>
<feGaussianBlur stdDeviation="10"/>
<feComposite in2="hardAlpha" operator="arithmetic" k2="-1" k3="1"/>
<feColorMatrix type="matrix" values="0 0 0 0 0 0 0 0 0 0 0 0 0 0 0 0 0 0 0.17 0"/>
<feBlend mode="normal" in2="shape" result="effect1_innerShadow"/>
</filter>
<filter id="filter6_i" x="41.9648" y="125.439" width="23.4314" height="17.4314" filterUnits="userSpaceOnUse" color-interpolation-filters="sRGB">
<feFlood flood-opacity="0" result="BackgroundImageFix"/>
<feBlend mode="normal" in="SourceGraphic" in2="BackgroundImageFix" result="shape"/>
<feColorMatrix in="SourceAlpha" type="matrix" values="0 0 0 0 0 0 0 0 0 0 0 0 0 0 0 0 0 0 127 0" result="hardAlpha"/>
<feOffset dx="9" dy="-3"/>
<feGaussianBlur stdDeviation="10"/>
<feComposite in2="hardAlpha" operator="arithmetic" k2="-1" k3="1"/>
<feColorMatrix type="matrix" values="0 0 0 0 0 0 0 0 0 0 0 0 0 0 0 0 0 0 0.17 0"/>
<feBlend mode="normal" in2="shape" result="effect1_innerShadow"/>
</filter>
<filter id="filter7_i" x="3" y="227.902" width="32.0902" height="26.0902" filterUnits="userSpaceOnUse" color-interpolation-filters="sRGB">
<feFlood flood-opacity="0" result="BackgroundImageFix"/>
<feBlend mode="normal" in="SourceGraphic" in2="BackgroundImageFix" result="shape"/>
<feColorMatrix in="SourceAlpha" type="matrix" values="0 0 0 0 0 0 0 0 0 0 0 0 0 0 0 0 0 0 127 0" result="hardAlpha"/>
<feOffset dx="9" dy="-3"/>
<feGaussianBlur stdDeviation="10"/>
<feComposite in2="hardAlpha" operator="arithmetic" k2="-1" k3="1"/>
<feColorMatrix type="matrix" values="0 0 0 0 0 0 0 0 0 0 0 0 0 0 0 0 0 0 0.17 0"/>
<feBlend mode="normal" in2="shape" result="effect1_innerShadow"/>
</filter>
<filter id="filter8_i" x="117.7" y="64" width="176.301" height="170.329" filterUnits="userSpaceOnUse" color-interpolation-filters="sRGB">
<feFlood flood-opacity="0" result="BackgroundImageFix"/>
<feBlend mode="normal" in="SourceGraphic" in2="BackgroundImageFix" result="shape"/>
<feColorMatrix in="SourceAlpha" type="matrix" values="0 0 0 0 0 0 0 0 0 0 0 0 0 0 0 0 0 0 127 0" result="hardAlpha"/>
<feOffset dx="9" dy="-3"/>
<feGaussianBlur stdDeviation="10"/>
<feComposite in2="hardAlpha" operator="arithmetic" k2="-1" k3="1"/>
<feColorMatrix type="matrix" values="0 0 0 0 0 0 0 0 0 0 0 0 0 0 0 0 0 0 0.17 0"/>
<feBlend mode="normal" in2="shape" result="effect1_innerShadow"/>
</filter>
<filter id="filter9_bdii" x="62.1836" y="170.076" width="127.892" height="119.521" filterUnits="userSpaceOnUse" color-interpolation-filters="sRGB">
<feFlood flood-opacity="0" result="BackgroundImageFix"/>
<feGaussianBlur in="BackgroundImage" stdDeviation="10"/>
<feComposite in2="SourceAlpha" operator="in" result="effect1_backgroundBlur"/>
<feColorMatrix in="SourceAlpha" type="matrix" values="0 0 0 0 0 0 0 0 0 0 0 0 0 0 0 0 0 0 127 0"/>
<feOffset dx="9" dy="5"/>
<feGaussianBlur stdDeviation="10"/>
<feColorMatrix type="matrix" values="0 0 0 0 0.0690278 0 0 0 0 0.295833 0 0 0 0 0.11166 0 0 0 0.08 0"/>
<feBlend mode="normal" in2="effect1_backgroundBlur" result="effect2_dropShadow"/>
<feBlend mode="normal" in="SourceGraphic" in2="effect2_dropShadow" result="shape"/>
<feColorMatrix in="SourceAlpha" type="matrix" values="0 0 0 0 0 0 0 0 0 0 0 0 0 0 0 0 0 0 127 0" result="hardAlpha"/>
<feOffset/>
<feGaussianBlur stdDeviation="5"/>
<feComposite in2="hardAlpha" operator="arithmetic" k2="-1" k3="1"/>
<feColorMatrix type="matrix" values="0 0 0 0 0.156863 0 0 0 0 0.67451 0 0 0 0 0.25098 0 0 0 0.2 0"/>
<feBlend mode="normal" in2="shape" result="effect3_innerShadow"/>
<feColorMatrix in="SourceAlpha" type="matrix" values="0 0 0 0 0 0 0 0 0 0 0 0 0 0 0 0 0 0 127 0" result="hardAlpha"/>
<feOffset dx="-3" dy="6"/>
<feGaussianBlur stdDeviation="7.5"/>
<feComposite in2="hardAlpha" operator="arithmetic" k2="-1" k3="1"/>
<feColorMatrix type="matrix" values="0 0 0 0 0.0770313 0 0 0 0 0.6375 0 0 0 0 0.178935 0 0 0 0.09 0"/>
<feBlend mode="normal" in2="effect3_innerShadow" result="effect4_innerShadow"/>
</filter>
<filter id="filter10_i" x="117.7" y="64" width="176.301" height="170.329" filterUnits="userSpaceOnUse" color-interpolation-filters="sRGB">
<feFlood flood-opacity="0" result="BackgroundImageFix"/>
<feBlend mode="normal" in="SourceGraphic" in2="BackgroundImageFix" result="shape"/>
<feColorMatrix in="SourceAlpha" type="matrix" values="0 0 0 0 0 0 0 0 0 0 0 0 0 0 0 0 0 0 127 0" result="hardAlpha"/>
<feOffset dx="9" dy="-3"/>
<feGaussianBlur stdDeviation="10"/>
<feComposite in2="hardAlpha" operator="arithmetic" k2="-1" k3="1"/>
<feColorMatrix type="matrix" values="0 0 0 0 0 0 0 0 0 0 0 0 0 0 0 0 0 0 0.17 0"/>
<feBlend mode="normal" in2="shape" result="effect1_innerShadow"/>
</filter>
<filter id="filter11_biii" x="136.872" y="162.808" width="122.492" height="137.518" filterUnits="userSpaceOnUse" color-interpolation-filters="sRGB">
<feFlood flood-opacity="0" result="BackgroundImageFix"/>
<feGaussianBlur in="BackgroundImage" stdDeviation="10"/>
<feComposite in2="SourceAlpha" operator="in" result="effect1_backgroundBlur"/>
<feBlend mode="normal" in="SourceGraphic" in2="effect1_backgroundBlur" result="shape"/>
<feColorMatrix in="SourceAlpha" type="matrix" values="0 0 0 0 0 0 0 0 0 0 0 0 0 0 0 0 0 0 127 0" result="hardAlpha"/>
<feOffset dx="-10" dy="10"/>
<feGaussianBlur stdDeviation="5"/>
<feComposite in2="hardAlpha" operator="arithmetic" k2="-1" k3="1"/>
<feColorMatrix type="matrix" values="0 0 0 0 1 0 0 0 0 1 0 0 0 0 1 0 0 0 0.15 0"/>
<feBlend mode="normal" in2="shape" result="effect2_innerShadow"/>
<feColorMatrix in="SourceAlpha" type="matrix" values="0 0 0 0 0 0 0 0 0 0 0 0 0 0 0 0 0 0 127 0" result="hardAlpha"/>
<feOffset dy="-10"/>
<feGaussianBlur stdDeviation="5"/>
<feComposite in2="hardAlpha" operator="arithmetic" k2="-1" k3="1"/>
<feColorMatrix type="matrix" values="0 0 0 0 0.156863 0 0 0 0 0.67451 0 0 0 0 0.25098 0 0 0 0.05 0"/>
<feBlend mode="normal" in2="effect2_innerShadow" result="effect3_innerShadow"/>
<feColorMatrix in="SourceAlpha" type="matrix" values="0 0 0 0 0 0 0 0 0 0 0 0 0 0 0 0 0 0 127 0" result="hardAlpha"/>
<feOffset dx="-3" dy="6"/>
<feGaussianBlur stdDeviation="7.5"/>
<feComposite in2="hardAlpha" operator="arithmetic" k2="-1" k3="1"/>
<feColorMatrix type="matrix" values="0 0 0 0 0.0770313 0 0 0 0 0.6375 0 0 0 0 0.178935 0 0 0 0.2 0"/>
<feBlend mode="normal" in2="effect3_innerShadow" result="effect4_innerShadow"/>
</filter>
<filter id="filter12_biii" x="53" y="95" width="138.861" height="124.288" filterUnits="userSpaceOnUse" color-interpolation-filters="sRGB">
<feFlood flood-opacity="0" result="BackgroundImageFix"/>
<feGaussianBlur in="BackgroundImage" stdDeviation="10"/>
<feComposite in2="SourceAlpha" operator="in" result="effect1_backgroundBlur"/>
<feBlend mode="normal" in="SourceGraphic" in2="effect1_backgroundBlur" result="shape"/>
<feColorMatrix in="SourceAlpha" type="matrix" values="0 0 0 0 0 0 0 0 0 0 0 0 0 0 0 0 0 0 127 0" result="hardAlpha"/>
<feOffset dx="-10" dy="10"/>
<feGaussianBlur stdDeviation="5"/>
<feComposite in2="hardAlpha" operator="arithmetic" k2="-1" k3="1"/>
<feColorMatrix type="matrix" values="0 0 0 0 1 0 0 0 0 1 0 0 0 0 1 0 0 0 0.15 0"/>
<feBlend mode="normal" in2="shape" result="effect2_innerShadow"/>
<feColorMatrix in="SourceAlpha" type="matrix" values="0 0 0 0 0 0 0 0 0 0 0 0 0 0 0 0 0 0 127 0" result="hardAlpha"/>
<feOffset dy="-10"/>
<feGaussianBlur stdDeviation="5"/>
<feComposite in2="hardAlpha" operator="arithmetic" k2="-1" k3="1"/>
<feColorMatrix type="matrix" values="0 0 0 0 0.156863 0 0 0 0 0.67451 0 0 0 0 0.25098 0 0 0 0.05 0"/>
<feBlend mode="normal" in2="effect2_innerShadow" result="effect3_innerShadow"/>
<feColorMatrix in="SourceAlpha" type="matrix" values="0 0 0 0 0 0 0 0 0 0 0 0 0 0 0 0 0 0 127 0" result="hardAlpha"/>
<feOffset dx="-3" dy="6"/>
<feGaussianBlur stdDeviation="7.5"/>
<feComposite in2="hardAlpha" operator="arithmetic" k2="-1" k3="1"/>
<feColorMatrix type="matrix" values="0 0 0 0 0.0770313 0 0 0 0 0.6375 0 0 0 0 0.178935 0 0 0 0.2 0"/>
<feBlend mode="normal" in2="effect3_innerShadow" result="effect4_innerShadow"/>
</filter>
<filter id="filter13_bdii" x="62.1836" y="170.076" width="127.892" height="119.521" filterUnits="userSpaceOnUse" color-interpolation-filters="sRGB">
<feFlood flood-opacity="0" result="BackgroundImageFix"/>
<feGaussianBlur in="BackgroundImage" stdDeviation="10"/>
<feComposite in2="SourceAlpha" operator="in" result="effect1_backgroundBlur"/>
<feColorMatrix in="SourceAlpha" type="matrix" values="0 0 0 0 0 0 0 0 0 0 0 0 0 0 0 0 0 0 127 0"/>
<feOffset dx="9" dy="5"/>
<feGaussianBlur stdDeviation="10"/>
<feColorMatrix type="matrix" values="0 0 0 0 0.0690278 0 0 0 0 0.295833 0 0 0 0 0.11166 0 0 0 0.08 0"/>
<feBlend mode="normal" in2="effect1_backgroundBlur" result="effect2_dropShadow"/>
<feBlend mode="normal" in="SourceGraphic" in2="effect2_dropShadow" result="shape"/>
<feColorMatrix in="SourceAlpha" type="matrix" values="0 0 0 0 0 0 0 0 0 0 0 0 0 0 0 0 0 0 127 0" result="hardAlpha"/>
<feOffset/>
<feGaussianBlur stdDeviation="5"/>
<feComposite in2="hardAlpha" operator="arithmetic" k2="-1" k3="1"/>
<feColorMatrix type="matrix" values="0 0 0 0 0.156863 0 0 0 0 0.67451 0 0 0 0 0.25098 0 0 0 0.2 0"/>
<feBlend mode="normal" in2="shape" result="effect3_innerShadow"/>
<feColorMatrix in="SourceAlpha" type="matrix" values="0 0 0 0 0 0 0 0 0 0 0 0 0 0 0 0 0 0 127 0" result="hardAlpha"/>
<feOffset dx="-3" dy="6"/>
<feGaussianBlur stdDeviation="7.5"/>
<feComposite in2="hardAlpha" operator="arithmetic" k2="-1" k3="1"/>
<feColorMatrix type="matrix" values="0 0 0 0 0.0770313 0 0 0 0 0.6375 0 0 0 0 0.178935 0 0 0 0.09 0"/>
<feBlend mode="normal" in2="effect3_innerShadow" result="effect4_innerShadow"/>
</filter>
<filter id="filter14_bdii" x="175.897" y="81.793" width="99.9166" height="95.9166" filterUnits="userSpaceOnUse" color-interpolation-filters="sRGB">
<feFlood flood-opacity="0" result="BackgroundImageFix"/>
<feGaussianBlur in="BackgroundImage" stdDeviation="10"/>
<feComposite in2="SourceAlpha" operator="in" result="effect1_backgroundBlur"/>
<feColorMatrix in="SourceAlpha" type="matrix" values="0 0 0 0 0 0 0 0 0 0 0 0 0 0 0 0 0 0 127 0"/>
<feOffset dx="9" dy="5"/>
<feGaussianBlur stdDeviation="10"/>
<feColorMatrix type="matrix" values="0 0 0 0 0.0690278 0 0 0 0 0.295833 0 0 0 0 0.11166 0 0 0 0.08 0"/>
<feBlend mode="normal" in2="effect1_backgroundBlur" result="effect2_dropShadow"/>
<feBlend mode="normal" in="SourceGraphic" in2="effect2_dropShadow" result="shape"/>
<feColorMatrix in="SourceAlpha" type="matrix" values="0 0 0 0 0 0 0 0 0 0 0 0 0 0 0 0 0 0 127 0" result="hardAlpha"/>
<feOffset dx="-10" dy="10"/>
<feGaussianBlur stdDeviation="5"/>
<feComposite in2="hardAlpha" operator="arithmetic" k2="-1" k3="1"/>
<feColorMatrix type="matrix" values="0 0 0 0 1 0 0 0 0 1 0 0 0 0 1 0 0 0 0.15 0"/>
<feBlend mode="normal" in2="shape" result="effect3_innerShadow"/>
<feColorMatrix in="SourceAlpha" type="matrix" values="0 0 0 0 0 0 0 0 0 0 0 0 0 0 0 0 0 0 127 0" result="hardAlpha"/>
<feOffset dx="3" dy="-6"/>
<feGaussianBlur stdDeviation="4.5"/>
<feComposite in2="hardAlpha" operator="arithmetic" k2="-1" k3="1"/>
<feColorMatrix type="matrix" values="0 0 0 0 0.0199306 0 0 0 0 0.341667 0 0 0 0 0.0521041 0 0 0 0.05 0"/>
<feBlend mode="normal" in2="effect3_innerShadow" result="effect4_innerShadow"/>
</filter>
<linearGradient id="paint0_linear" x1="265.935" y1="138" x2="211.771" y2="381.501" gradientUnits="userSpaceOnUse">
<stop stop-color="#9BE15D"/>
<stop offset="1" stop-color="#00E3AE"/>
</linearGradient>
<linearGradient id="paint1_linear" x1="324.997" y1="54.8391" x2="318.902" y2="82.2423" gradientUnits="userSpaceOnUse">
<stop stop-color="#9BE15D"/>
<stop offset="1" stop-color="#00E3AE"/>
</linearGradient>
<linearGradient id="paint2_linear" x1="367.177" y1="242.447" x2="358.571" y2="281.134" gradientUnits="userSpaceOnUse">
<stop stop-color="#9BE15D"/>
<stop offset="1" stop-color="#00E3AE"/>
</linearGradient>
<linearGradient id="paint3_linear" x1="53.5284" y1="-5.91698e-07" x2="47.0742" y2="29.0151" gradientUnits="userSpaceOnUse">
<stop stop-color="#9BE15D"/>
<stop offset="1" stop-color="#00E3AE"/>
</linearGradient>
<linearGradient id="paint4_linear" x1="54.8031" y1="128.439" x2="51.2175" y2="144.559" gradientUnits="userSpaceOnUse">
<stop stop-color="#9BE15D"/>
<stop offset="1" stop-color="#00E3AE"/>
</linearGradient>
<linearGradient id="paint5_linear" x1="23.5413" y1="230.902" x2="17.8043" y2="256.693" gradientUnits="userSpaceOnUse">
<stop stop-color="#9BE15D"/>
<stop offset="1" stop-color="#00E3AE"/>
</linearGradient>
<linearGradient id="paint6_linear" x1="266.533" y1="67" x2="224.952" y2="253.899" gradientUnits="userSpaceOnUse">
<stop stop-color="#9BE15D"/>
<stop offset="1" stop-color="#00E3AE"/>
</linearGradient>
<linearGradient id="paint7_linear" x1="100.343" y1="215.71" x2="95.2805" y2="238.491" gradientUnits="userSpaceOnUse">
<stop stop-color="#9BE15D"/>
<stop offset="1" stop-color="#00E3AE"/>
</linearGradient>
<linearGradient id="paint8_linear" x1="266.533" y1="67" x2="224.952" y2="253.899" gradientUnits="userSpaceOnUse">
<stop stop-color="#9BE15D"/>
<stop offset="1" stop-color="#00E3AE"/>
</linearGradient>
<linearGradient id="paint9_linear" x1="219.604" y1="180.523" x2="204.058" y2="283.416" gradientUnits="userSpaceOnUse">
<stop stop-color="#9BE15D"/>
<stop offset="1" stop-color="#00E3AE"/>
</linearGradient>
<linearGradient id="paint10_linear" x1="173.955" y1="136.839" x2="70.7313" y2="150.013" gradientUnits="userSpaceOnUse">
<stop stop-color="#9BE15D"/>
<stop offset="1" stop-color="#00E3AE"/>
</linearGradient>
<linearGradient id="paint11_linear" x1="100.343" y1="215.71" x2="95.2805" y2="238.491" gradientUnits="userSpaceOnUse">
<stop stop-color="#9BE15D"/>
<stop offset="1" stop-color="#00E3AE"/>
</linearGradient>
<linearGradient id="paint12_linear" x1="241.193" y1="101.793" x2="228.543" y2="158.666" gradientUnits="userSpaceOnUse">
<stop stop-color="#9BE15D"/>
<stop offset="1" stop-color="#00E3AE"/>
</linearGradient>
</defs>
</svg>
