<svg width="596" height="596" viewBox="0 0 596 596" fill="none" xmlns="http://www.w3.org/2000/svg">
<g filter="url(#filter0_d)">
<rect x="100" y="69" width="360" height="360" rx="100" fill="url(#paint0_linear)"/>
<mask id="mask0" mask-type="alpha" maskUnits="userSpaceOnUse" x="100" y="69" width="360" height="360">
<rect x="100" y="69" width="360" height="360" rx="100" fill="white"/>
</mask>
<g mask="url(#mask0)">
<g filter="url(#filter1_f)">
<rect x="428.5" y="349.5" width="200" height="23" rx="10" transform="rotate(-90 428.5 349.5)" fill="#FFC6DC"/>
</g>
<g filter="url(#filter2_f)">
<rect x="428.5" y="188.5" width="39" height="23" rx="10" transform="rotate(-90 428.5 188.5)" fill="#FFC6DC"/>
</g>
<g filter="url(#filter3_f)">
<rect x="108.5" y="349.5" width="200" height="23" rx="10" transform="rotate(-90 108.5 349.5)" fill="#FFC6DC"/>
</g>
<g filter="url(#filter4_f)">
<rect x="108.5" y="188.5" width="39" height="23" rx="10" transform="rotate(-90 108.5 188.5)" fill="#FFC6DC"/>
</g>
<g filter="url(#filter5_f)">
<rect x="152" y="91" width="256" height="29" rx="10" fill="#FFC6DC"/>
</g>
</g>
<g filter="url(#filter6_d)">
<path fill-rule="evenodd" clip-rule="evenodd" d="M243.42 196C241.325 204.015 235.015 210.326 227 212.421V285.913C234.219 287.8 240.056 293.108 242.674 300H317.659C319.989 293.867 324.867 288.989 331 286.659V211.675C324.107 209.056 318.8 203.22 316.913 196H243.42ZM343 212.849C353.878 211.024 362.167 201.563 362.167 190.167C362.167 177.464 351.869 167.167 339.167 167.167C328.6 167.167 319.698 174.292 317.003 184H243.33C240.635 174.292 231.733 167.167 221.167 167.167C208.464 167.167 198.167 177.464 198.167 190.167C198.167 200.733 205.292 209.636 215 212.331V286.003C205.292 288.698 198.167 297.601 198.167 308.167C198.167 320.87 208.464 331.167 221.167 331.167C232.563 331.167 242.024 322.878 243.848 312H316.485C318.309 322.878 327.77 331.167 339.167 331.167C351.869 331.167 362.167 320.87 362.167 308.167C362.167 296.771 353.878 287.31 343 285.485V212.849Z" fill="url(#paint1_linear)"/>
</g>
</g>
<defs>
<filter id="filter0_d" x="0" y="0" width="596" height="596" filterUnits="userSpaceOnUse" color-interpolation-filters="sRGB">
<feFlood flood-opacity="0" result="BackgroundImageFix"/>
<feColorMatrix in="SourceAlpha" type="matrix" values="0 0 0 0 0 0 0 0 0 0 0 0 0 0 0 0 0 0 127 0"/>
<feOffset dx="18" dy="49"/>
<feGaussianBlur stdDeviation="59"/>
<feColorMatrix type="matrix" values="0 0 0 0 0 0 0 0 0 0 0 0 0 0 0 0 0 0 0.169608 0"/>
<feBlend mode="normal" in2="BackgroundImageFix" result="effect1_dropShadow"/>
<feBlend mode="normal" in="SourceGraphic" in2="effect1_dropShadow" result="shape"/>
</filter>
<filter id="filter1_f" x="390.444" y="111.444" width="99.1119" height="276.112" filterUnits="userSpaceOnUse" color-interpolation-filters="sRGB">
<feFlood flood-opacity="0" result="BackgroundImageFix"/>
<feBlend mode="normal" in="SourceGraphic" in2="BackgroundImageFix" result="shape"/>
<feGaussianBlur stdDeviation="19.028" result="effect1_foregroundBlur"/>
</filter>
<filter id="filter2_f" x="390.444" y="111.444" width="99.1119" height="115.112" filterUnits="userSpaceOnUse" color-interpolation-filters="sRGB">
<feFlood flood-opacity="0" result="BackgroundImageFix"/>
<feBlend mode="normal" in="SourceGraphic" in2="BackgroundImageFix" result="shape"/>
<feGaussianBlur stdDeviation="19.028" result="effect1_foregroundBlur"/>
</filter>
<filter id="filter3_f" x="70.4441" y="111.444" width="99.1119" height="276.112" filterUnits="userSpaceOnUse" color-interpolation-filters="sRGB">
<feFlood flood-opacity="0" result="BackgroundImageFix"/>
<feBlend mode="normal" in="SourceGraphic" in2="BackgroundImageFix" result="shape"/>
<feGaussianBlur stdDeviation="19.028" result="effect1_foregroundBlur"/>
</filter>
<filter id="filter4_f" x="70.4441" y="111.444" width="99.1119" height="115.112" filterUnits="userSpaceOnUse" color-interpolation-filters="sRGB">
<feFlood flood-opacity="0" result="BackgroundImageFix"/>
<feBlend mode="normal" in="SourceGraphic" in2="BackgroundImageFix" result="shape"/>
<feGaussianBlur stdDeviation="19.028" result="effect1_foregroundBlur"/>
</filter>
<filter id="filter5_f" x="113.944" y="52.9441" width="332.112" height="105.112" filterUnits="userSpaceOnUse" color-interpolation-filters="sRGB">
<feFlood flood-opacity="0" result="BackgroundImageFix"/>
<feBlend mode="normal" in="SourceGraphic" in2="BackgroundImageFix" result="shape"/>
<feGaussianBlur stdDeviation="19.028" result="effect1_foregroundBlur"/>
</filter>
<filter id="filter6_d" x="192.167" y="167.167" width="176" height="179" filterUnits="userSpaceOnUse" color-interpolation-filters="sRGB">
<feFlood flood-opacity="0" result="BackgroundImageFix"/>
<feColorMatrix in="SourceAlpha" type="matrix" values="0 0 0 0 0 0 0 0 0 0 0 0 0 0 0 0 0 0 127 0"/>
<feOffset dy="9"/>
<feGaussianBlur stdDeviation="3"/>
<feColorMatrix type="matrix" values="0 0 0 0 0 0 0 0 0 0 0 0 0 0 0 0 0 0 0.115002 0"/>
<feBlend mode="normal" in2="BackgroundImageFix" result="effect1_dropShadow"/>
<feBlend mode="normal" in="SourceGraphic" in2="effect1_dropShadow" result="shape"/>
</filter>
<linearGradient id="paint0_linear" x1="100" y1="69" x2="100" y2="429" gradientUnits="userSpaceOnUse">
<stop stop-color="#FFADCD"/>
<stop offset="0.999426" stop-color="#C6366D"/>
</linearGradient>
<linearGradient id="paint1_linear" x1="198.167" y1="167.167" x2="198.167" y2="331.167" gradientUnits="userSpaceOnUse">
<stop stop-color="#FFECF3"/>
<stop offset="0.736915" stop-color="#FEC0D8"/>
<stop offset="1" stop-color="#FDA9C9"/>
</linearGradient>
</defs>
</svg>
