<svg width="596" height="596" viewBox="0 0 596 596" fill="none" xmlns="http://www.w3.org/2000/svg">
<g filter="url(#filter0_d)">
<rect x="100" y="69" width="360" height="360" rx="100" fill="url(#paint0_linear)"/>
<mask id="mask0" mask-type="alpha" maskUnits="userSpaceOnUse" x="100" y="69" width="360" height="360">
<rect x="100" y="69" width="360" height="360" rx="100" fill="white"/>
</mask>
<g mask="url(#mask0)">
<g filter="url(#filter1_f)">
<rect x="428.5" y="349.5" width="200" height="23" rx="10" transform="rotate(-90 428.5 349.5)" fill="#EDB7FF"/>
</g>
<g filter="url(#filter2_f)">
<rect x="428.5" y="188.5" width="39" height="23" rx="10" transform="rotate(-90 428.5 188.5)" fill="#EDB7FF"/>
</g>
<g filter="url(#filter3_f)">
<rect x="108.5" y="349.5" width="200" height="23" rx="10" transform="rotate(-90 108.5 349.5)" fill="#EDB7FF"/>
</g>
<g filter="url(#filter4_f)">
<rect x="108.5" y="188.5" width="39" height="23" rx="10" transform="rotate(-90 108.5 188.5)" fill="#EDB7FF"/>
</g>
<g filter="url(#filter5_f)">
<rect x="152" y="91" width="256" height="29" rx="10" fill="#EDB7FF"/>
</g>
</g>
<g filter="url(#filter6_d)">
<path fill-rule="evenodd" clip-rule="evenodd" d="M279.747 155H280.253L280.946 155.057L281.133 155.085L281.814 155.227L282.481 155.435L283.129 155.708L283.752 156.046L284.346 156.449L284.798 156.821C305.334 175.063 331.958 184.81 359.311 184.165L361.726 184.081C365.058 183.928 368.062 186.08 369.003 189.293C378.403 221.398 374.433 255.958 358.001 285.072C341.569 314.186 314.08 335.365 281.818 343.767C280.626 344.078 279.374 344.078 278.182 343.767C245.92 335.365 218.431 314.186 201.999 285.072C185.567 255.958 181.597 221.398 190.997 189.293C191.938 186.08 194.942 183.928 198.274 184.081C225.665 185.339 252.485 176.149 273.375 158.408L275.782 156.356L276.393 155.961L276.871 155.708L277.519 155.435L278.186 155.227L278.867 155.085L279.558 155.009L279.747 155Z" fill="url(#paint1_linear)"/>
</g>
<g filter="url(#filter7_d)">
<path d="M309.807 218.596C313.282 215.135 318.918 215.135 322.393 218.596C325.637 221.827 325.853 226.931 323.042 230.411L322.393 231.131L274.927 278.404C271.683 281.635 266.558 281.85 263.063 279.05L262.34 278.404L238.607 254.768C235.131 251.306 235.131 245.694 238.607 242.232C241.851 239.002 246.976 238.786 250.471 241.586L251.193 242.232L268.629 259.6L309.807 218.596Z" fill="url(#paint2_linear)"/>
</g>
</g>
<defs>
<filter id="filter0_d" x="0" y="0" width="596" height="596" filterUnits="userSpaceOnUse" color-interpolation-filters="sRGB">
<feFlood flood-opacity="0" result="BackgroundImageFix"/>
<feColorMatrix in="SourceAlpha" type="matrix" values="0 0 0 0 0 0 0 0 0 0 0 0 0 0 0 0 0 0 127 0"/>
<feOffset dx="18" dy="49"/>
<feGaussianBlur stdDeviation="59"/>
<feColorMatrix type="matrix" values="0 0 0 0 0 0 0 0 0 0 0 0 0 0 0 0 0 0 0.169608 0"/>
<feBlend mode="normal" in2="BackgroundImageFix" result="effect1_dropShadow"/>
<feBlend mode="normal" in="SourceGraphic" in2="effect1_dropShadow" result="shape"/>
</filter>
<filter id="filter1_f" x="390.444" y="111.444" width="99.1119" height="276.112" filterUnits="userSpaceOnUse" color-interpolation-filters="sRGB">
<feFlood flood-opacity="0" result="BackgroundImageFix"/>
<feBlend mode="normal" in="SourceGraphic" in2="BackgroundImageFix" result="shape"/>
<feGaussianBlur stdDeviation="19.028" result="effect1_foregroundBlur"/>
</filter>
<filter id="filter2_f" x="390.444" y="111.444" width="99.1119" height="115.112" filterUnits="userSpaceOnUse" color-interpolation-filters="sRGB">
<feFlood flood-opacity="0" result="BackgroundImageFix"/>
<feBlend mode="normal" in="SourceGraphic" in2="BackgroundImageFix" result="shape"/>
<feGaussianBlur stdDeviation="19.028" result="effect1_foregroundBlur"/>
</filter>
<filter id="filter3_f" x="70.4441" y="111.444" width="99.1119" height="276.112" filterUnits="userSpaceOnUse" color-interpolation-filters="sRGB">
<feFlood flood-opacity="0" result="BackgroundImageFix"/>
<feBlend mode="normal" in="SourceGraphic" in2="BackgroundImageFix" result="shape"/>
<feGaussianBlur stdDeviation="19.028" result="effect1_foregroundBlur"/>
</filter>
<filter id="filter4_f" x="70.4441" y="111.444" width="99.1119" height="115.112" filterUnits="userSpaceOnUse" color-interpolation-filters="sRGB">
<feFlood flood-opacity="0" result="BackgroundImageFix"/>
<feBlend mode="normal" in="SourceGraphic" in2="BackgroundImageFix" result="shape"/>
<feGaussianBlur stdDeviation="19.028" result="effect1_foregroundBlur"/>
</filter>
<filter id="filter5_f" x="113.944" y="52.9441" width="332.112" height="105.112" filterUnits="userSpaceOnUse" color-interpolation-filters="sRGB">
<feFlood flood-opacity="0" result="BackgroundImageFix"/>
<feBlend mode="normal" in="SourceGraphic" in2="BackgroundImageFix" result="shape"/>
<feGaussianBlur stdDeviation="19.028" result="effect1_foregroundBlur"/>
</filter>
<filter id="filter6_d" x="169" y="148" width="222" height="223" filterUnits="userSpaceOnUse" color-interpolation-filters="sRGB">
<feFlood flood-opacity="0" result="BackgroundImageFix"/>
<feColorMatrix in="SourceAlpha" type="matrix" values="0 0 0 0 0 0 0 0 0 0 0 0 0 0 0 0 0 0 127 0"/>
<feOffset dy="10"/>
<feGaussianBlur stdDeviation="8.5"/>
<feColorMatrix type="matrix" values="0 0 0 0 0 0 0 0 0 0 0 0 0 0 0 0 0 0 0.110987 0"/>
<feBlend mode="normal" in2="BackgroundImageFix" result="effect1_dropShadow"/>
<feBlend mode="normal" in="SourceGraphic" in2="effect1_dropShadow" result="shape"/>
</filter>
<filter id="filter7_d" x="232" y="214" width="97" height="73" filterUnits="userSpaceOnUse" color-interpolation-filters="sRGB">
<feFlood flood-opacity="0" result="BackgroundImageFix"/>
<feColorMatrix in="SourceAlpha" type="matrix" values="0 0 0 0 0 0 0 0 0 0 0 0 0 0 0 0 0 0 127 0"/>
<feOffset dy="2"/>
<feGaussianBlur stdDeviation="2"/>
<feColorMatrix type="matrix" values="0 0 0 0 0 0 0 0 0 0 0 0 0 0 0 0 0 0 0.138658 0"/>
<feBlend mode="normal" in2="BackgroundImageFix" result="effect1_dropShadow"/>
<feBlend mode="normal" in="SourceGraphic" in2="effect1_dropShadow" result="shape"/>
</filter>
<linearGradient id="paint0_linear" x1="100" y1="69" x2="100" y2="429" gradientUnits="userSpaceOnUse">
<stop stop-color="#DF9EF5"/>
<stop offset="0.999426" stop-color="#A24ABF"/>
</linearGradient>
<linearGradient id="paint1_linear" x1="186" y1="155" x2="186" y2="344" gradientUnits="userSpaceOnUse">
<stop stop-color="#FEFAFF"/>
<stop offset="1" stop-color="#E596FF"/>
</linearGradient>
<linearGradient id="paint2_linear" x1="236" y1="216" x2="236" y2="281" gradientUnits="userSpaceOnUse">
<stop stop-color="#DF9EF5"/>
<stop offset="0.999426" stop-color="#A24ABF"/>
</linearGradient>
</defs>
</svg>
