<svg width="596" height="596" viewBox="0 0 596 596" fill="none" xmlns="http://www.w3.org/2000/svg">
<g filter="url(#filter0_d)">
<rect x="100" y="69" width="360" height="360" rx="100" fill="url(#paint0_linear)"/>
<mask id="mask0" mask-type="alpha" maskUnits="userSpaceOnUse" x="100" y="69" width="360" height="360">
<rect x="100" y="69" width="360" height="360" rx="100" fill="white"/>
</mask>
<g mask="url(#mask0)">
<g filter="url(#filter1_f)">
<rect x="428.5" y="349.5" width="200" height="23" rx="10" transform="rotate(-90 428.5 349.5)" fill="#FFD3D3"/>
</g>
<g filter="url(#filter2_f)">
<rect x="428.5" y="188.5" width="39" height="23" rx="10" transform="rotate(-90 428.5 188.5)" fill="#FFD3D3"/>
</g>
<g filter="url(#filter3_f)">
<rect x="108.5" y="349.5" width="200" height="23" rx="10" transform="rotate(-90 108.5 349.5)" fill="#FFD3D3"/>
</g>
<g filter="url(#filter4_f)">
<rect x="108.5" y="188.5" width="39" height="23" rx="10" transform="rotate(-90 108.5 188.5)" fill="#FFD3D3"/>
</g>
<g filter="url(#filter5_f)">
<rect x="152" y="91" width="256" height="29" rx="10" fill="#FFD3D3"/>
</g>
</g>
<g filter="url(#filter6_d)">
<path fill-rule="evenodd" clip-rule="evenodd" d="M280.5 304.493L226.566 333.46C221.404 336.232 215.323 331.815 216.365 326.049L227.248 265.803L183.032 223.459C178.8 219.407 181.122 212.259 186.928 211.468L247.588 203.201L274.196 148.064C276.742 142.787 284.258 142.787 286.804 148.064L313.412 203.201L374.072 211.468C379.878 212.259 382.2 219.407 377.968 223.459L333.752 265.803L344.635 326.049C345.677 331.815 339.596 336.232 334.434 333.46L280.5 304.493Z" fill="url(#paint1_linear)"/>
</g>
</g>
<defs>
<filter id="filter0_d" x="0" y="0" width="596" height="596" filterUnits="userSpaceOnUse" color-interpolation-filters="sRGB">
<feFlood flood-opacity="0" result="BackgroundImageFix"/>
<feColorMatrix in="SourceAlpha" type="matrix" values="0 0 0 0 0 0 0 0 0 0 0 0 0 0 0 0 0 0 127 0"/>
<feOffset dx="18" dy="49"/>
<feGaussianBlur stdDeviation="59"/>
<feColorMatrix type="matrix" values="0 0 0 0 0 0 0 0 0 0 0 0 0 0 0 0 0 0 0.169608 0"/>
<feBlend mode="normal" in2="BackgroundImageFix" result="effect1_dropShadow"/>
<feBlend mode="normal" in="SourceGraphic" in2="effect1_dropShadow" result="shape"/>
</filter>
<filter id="filter1_f" x="390.444" y="111.444" width="99.1119" height="276.112" filterUnits="userSpaceOnUse" color-interpolation-filters="sRGB">
<feFlood flood-opacity="0" result="BackgroundImageFix"/>
<feBlend mode="normal" in="SourceGraphic" in2="BackgroundImageFix" result="shape"/>
<feGaussianBlur stdDeviation="19.028" result="effect1_foregroundBlur"/>
</filter>
<filter id="filter2_f" x="390.444" y="111.444" width="99.1119" height="115.112" filterUnits="userSpaceOnUse" color-interpolation-filters="sRGB">
<feFlood flood-opacity="0" result="BackgroundImageFix"/>
<feBlend mode="normal" in="SourceGraphic" in2="BackgroundImageFix" result="shape"/>
<feGaussianBlur stdDeviation="19.028" result="effect1_foregroundBlur"/>
</filter>
<filter id="filter3_f" x="70.4441" y="111.444" width="99.1119" height="276.112" filterUnits="userSpaceOnUse" color-interpolation-filters="sRGB">
<feFlood flood-opacity="0" result="BackgroundImageFix"/>
<feBlend mode="normal" in="SourceGraphic" in2="BackgroundImageFix" result="shape"/>
<feGaussianBlur stdDeviation="19.028" result="effect1_foregroundBlur"/>
</filter>
<filter id="filter4_f" x="70.4441" y="111.444" width="99.1119" height="115.112" filterUnits="userSpaceOnUse" color-interpolation-filters="sRGB">
<feFlood flood-opacity="0" result="BackgroundImageFix"/>
<feBlend mode="normal" in="SourceGraphic" in2="BackgroundImageFix" result="shape"/>
<feGaussianBlur stdDeviation="19.028" result="effect1_foregroundBlur"/>
</filter>
<filter id="filter5_f" x="113.944" y="52.9441" width="332.112" height="105.112" filterUnits="userSpaceOnUse" color-interpolation-filters="sRGB">
<feFlood flood-opacity="0" result="BackgroundImageFix"/>
<feBlend mode="normal" in="SourceGraphic" in2="BackgroundImageFix" result="shape"/>
<feGaussianBlur stdDeviation="19.028" result="effect1_foregroundBlur"/>
</filter>
<filter id="filter6_d" x="163.865" y="137.106" width="233.269" height="224.203" filterUnits="userSpaceOnUse" color-interpolation-filters="sRGB">
<feFlood flood-opacity="0" result="BackgroundImageFix"/>
<feColorMatrix in="SourceAlpha" type="matrix" values="0 0 0 0 0 0 0 0 0 0 0 0 0 0 0 0 0 0 127 0"/>
<feOffset dy="10"/>
<feGaussianBlur stdDeviation="8.5"/>
<feColorMatrix type="matrix" values="0 0 0 0 0 0 0 0 0 0 0 0 0 0 0 0 0 0 0.110987 0"/>
<feBlend mode="normal" in2="BackgroundImageFix" result="effect1_dropShadow"/>
<feBlend mode="normal" in="SourceGraphic" in2="effect1_dropShadow" result="shape"/>
</filter>
<linearGradient id="paint0_linear" x1="100" y1="69" x2="100" y2="429" gradientUnits="userSpaceOnUse">
<stop offset="0.000300481" stop-color="#FFB2B2"/>
<stop offset="0.999481" stop-color="#EC4040"/>
</linearGradient>
<linearGradient id="paint1_linear" x1="184.482" y1="135" x2="184.482" y2="327.035" gradientUnits="userSpaceOnUse">
<stop stop-color="white"/>
<stop offset="0.755791" stop-color="#FFE5E5"/>
<stop offset="1" stop-color="#FFE8E8"/>
</linearGradient>
</defs>
</svg>
