<svg width="400" height="400" viewBox="0 0 400 400" fill="none" xmlns="http://www.w3.org/2000/svg">
<g clip-path="url(#clip0)">
<rect width="400" height="400" rx="200" fill="#E0DDFF"/>
<g clip-path="url(#clip1)">
<path d="M256 376.5C241.6 356.5 230.333 317.834 229 298.5L160.5 269L132 376.5H256Z" fill="#AC6651" stroke="black" stroke-width="4"/>
<mask id="mask0" mask-type="alpha" maskUnits="userSpaceOnUse" x="132" y="269" width="124" height="118">
<path d="M256 386.5C241.6 366.5 230.333 317.834 229 298.5L160.5 269L132 386.5H256Z" fill="#AC6651"/>
</mask>
<g mask="url(#mask0)">
<g style="mix-blend-mode:multiply">
<ellipse cx="226" cy="267" rx="59" ry="54" fill="black"/>
</g>
</g>
<mask id="path-5-inside-1" fill="white">
<path fill-rule="evenodd" clip-rule="evenodd" d="M285.886 207.917C285.859 207.801 285.831 207.685 285.803 207.569C285.776 207.454 285.748 207.338 285.719 207.222L269.323 138.786C269.306 138.718 269.29 138.65 269.274 138.582C269.258 138.514 269.242 138.446 269.225 138.379L269.152 138.075L269.151 138.076C258.933 96.6308 217.156 71.1472 175.582 81.1081C134.008 91.0689 108.315 132.717 117.988 174.293L117.986 174.293L134.978 245.211L134.992 245.208C145.594 286.112 187.062 311.149 228.329 301.261C269.597 291.374 295.216 250.264 286.131 208.996L286.144 208.993L285.886 207.917Z"/>
</mask>
<path fill-rule="evenodd" clip-rule="evenodd" d="M285.886 207.917C285.859 207.801 285.831 207.685 285.803 207.569C285.776 207.454 285.748 207.338 285.719 207.222L269.323 138.786C269.306 138.718 269.29 138.65 269.274 138.582C269.258 138.514 269.242 138.446 269.225 138.379L269.152 138.075L269.151 138.076C258.933 96.6308 217.156 71.1472 175.582 81.1081C134.008 91.0689 108.315 132.717 117.988 174.293L117.986 174.293L134.978 245.211L134.992 245.208C145.594 286.112 187.062 311.149 228.329 301.261C269.597 291.374 295.216 250.264 286.131 208.996L286.144 208.993L285.886 207.917Z" fill="#AC6651"/>
<path d="M285.886 207.917L281.992 208.831L281.994 208.84L281.996 208.849L285.886 207.917ZM285.719 207.222L281.83 208.154L281.832 208.163L281.834 208.172L285.719 207.222ZM269.323 138.786L265.43 139.708L265.433 139.718L269.323 138.786ZM269.225 138.379L265.335 139.311L265.338 139.321L269.225 138.379ZM269.152 138.075L273.042 137.143L272.111 133.255L268.222 134.185L269.152 138.075ZM269.151 138.076L265.267 139.033L266.218 142.89L270.081 141.966L269.151 138.076ZM175.582 81.1081L174.65 77.2182L174.65 77.2182L175.582 81.1081ZM117.988 174.293L118.922 178.182L122.784 177.255L121.884 173.386L117.988 174.293ZM117.986 174.293L117.052 170.404L113.165 171.337L114.096 175.225L117.986 174.293ZM134.978 245.211L131.088 246.143L132.02 250.035L135.911 249.101L134.978 245.211ZM134.992 245.208L138.864 244.204L137.878 240.401L134.058 241.318L134.992 245.208ZM228.329 301.261L227.397 297.371L227.397 297.371L228.329 301.261ZM286.131 208.996L285.2 205.106L281.381 206.021L282.225 209.856L286.131 208.996ZM286.144 208.993L287.075 212.883L290.966 211.951L290.034 208.061L286.144 208.993ZM289.78 207.002C289.751 206.881 289.722 206.759 289.693 206.637L281.914 208.502C281.94 208.611 281.966 208.721 281.992 208.831L289.78 207.002ZM289.693 206.637C289.664 206.516 289.635 206.395 289.605 206.273L281.834 208.172C281.861 208.281 281.887 208.391 281.914 208.502L289.693 206.637ZM265.433 139.718L281.83 208.154L289.609 206.29L273.212 137.854L265.433 139.718ZM273.215 137.863C273.198 137.793 273.181 137.722 273.164 137.65L265.384 139.514C265.4 139.578 265.415 139.643 265.43 139.708L273.215 137.863ZM273.164 137.65C273.147 137.579 273.13 137.508 273.113 137.436L265.338 139.321C265.353 139.385 265.369 139.449 265.384 139.514L273.164 137.65ZM265.262 139.007L265.335 139.311L273.115 137.447L273.042 137.143L265.262 139.007ZM270.081 141.966L270.083 141.966L268.222 134.185L268.221 134.185L270.081 141.966ZM273.035 137.118C262.291 93.5398 218.364 66.7447 174.65 77.2182L176.514 84.998C215.949 75.5498 255.575 99.7219 265.267 139.033L273.035 137.118ZM174.65 77.2182C130.936 87.6917 103.922 131.484 114.092 175.199L121.884 173.386C112.709 133.951 137.08 94.4461 176.514 84.998L174.65 77.2182ZM118.92 178.183L118.922 178.182L117.054 170.403L117.052 170.404L118.92 178.183ZM138.868 244.279L121.876 173.361L114.096 175.225L131.088 246.143L138.868 244.279ZM134.058 241.318L134.044 241.322L135.911 249.101L135.925 249.097L134.058 241.318ZM131.12 246.211C142.268 289.223 185.869 315.548 229.261 305.151L227.397 297.371C188.254 306.75 148.92 283.002 138.864 244.204L131.12 246.211ZM229.261 305.151C272.653 294.755 299.591 251.53 290.038 208.136L282.225 209.856C290.842 248.999 266.541 287.993 227.397 297.371L229.261 305.151ZM285.212 205.103L285.2 205.106L287.063 212.886L287.075 212.883L285.212 205.103ZM281.996 208.849L282.254 209.925L290.034 208.061L289.776 206.985L281.996 208.849Z" fill="black" mask="url(#path-5-inside-1)"/>
</g>
<path d="M222.307 201.34C227.753 200.099 236.684 201.96 234.724 211.883C232.981 220.702 223.614 221.186 221 218.705" stroke="black" stroke-width="4"/>
<path d="M199.771 376.578C199.771 376.578 199.771 376.578 201 375L199.771 376.578L201.493 377.919L202.679 376.087L202.679 376.087L202.681 376.084L202.69 376.07L202.731 376.007C202.742 375.99 202.755 375.971 202.769 375.949C202.803 375.897 202.847 375.832 202.9 375.753C203.05 375.528 203.275 375.195 203.57 374.77C204.158 373.919 205.023 372.702 206.118 371.246C208.312 368.332 211.416 364.482 215.071 360.718C218.737 356.945 222.898 353.318 227.198 350.793C231.514 348.26 235.777 346.949 239.733 347.483C282.171 353.205 313.402 372.002 333.674 400.001H60.3745C76.6742 370.659 99.8579 351.983 137.445 343.413C139.046 343.047 141.224 343.158 143.947 343.791C146.642 344.418 149.715 345.519 153.028 346.976C159.655 349.889 167.052 354.136 174.004 358.536C180.945 362.93 187.39 367.443 192.104 370.86C194.459 372.567 196.379 374 197.709 375.004C198.374 375.506 198.891 375.901 199.241 376.169C199.416 376.304 199.55 376.407 199.639 376.475L199.739 376.553L199.764 376.572L199.77 376.577L199.771 376.578Z" fill="#9287FF" stroke="black" stroke-width="4"/>
<path d="M125.613 346.085L130.779 326.853C130.989 326.074 131.996 325.854 132.54 326.449C147.403 342.714 166.16 342.076 172.385 341.33C173.23 341.228 173.892 342.153 173.495 342.906L160.338 367.859C160.136 368.241 159.724 368.452 159.3 368.364C155.352 367.541 135.677 362.732 125.729 346.867C125.583 346.635 125.542 346.35 125.613 346.085Z" fill="#E0DDFF" stroke="black" stroke-width="4"/>
<path d="M256.195 345.981L244.615 326.499C244.222 325.837 243.253 325.848 242.834 326.494C237.097 335.33 227.202 339.4 223.742 340.602C223.12 340.819 222.835 341.558 223.171 342.125L236.673 364.94C236.875 365.281 237.255 365.465 237.636 365.357C239.771 364.749 247.096 361.685 256.182 347.021C256.378 346.706 256.385 346.3 256.195 345.981Z" fill="#E0DDFF" stroke="black" stroke-width="4"/>
<path d="M182.5 363.5L173.5 342L166.5 357L182.5 363.5Z" fill="black" stroke="black" stroke-width="4" stroke-linejoin="round"/>
<path d="M214 362.5L223 341L230 356L214 362.5Z" fill="black" stroke="black" stroke-width="4" stroke-linejoin="round"/>
<path d="M143.5 323L131.5 326L141.5 332.5L143.5 323Z" fill="black" stroke="black" stroke-width="4" stroke-linejoin="round"/>
<path d="M233 323L244 326L237 332.5L233 323Z" fill="black" stroke="black" stroke-width="4" stroke-linejoin="round"/>
<path d="M235 147.214C240.667 144.548 254 142.114 262 153.714" stroke="black" stroke-width="4" stroke-linecap="round"/>
<path d="M159.579 172.521C161.65 166.61 169.261 155.396 183.142 157.822" stroke="black" stroke-width="4" stroke-linecap="round"/>
<ellipse cx="186.53" cy="190.402" rx="9" ry="13.5" transform="rotate(-6.77646 186.53 190.402)" fill="black"/>
<ellipse cx="250.531" cy="180.402" rx="9" ry="13.5" transform="rotate(-6.27568 250.531 180.402)" fill="black"/>
<path d="M204.001 253.165C208.941 259.612 216.428 266.754 227.977 265.125C239.526 263.496 244.664 255.53 243.149 249.078" stroke="black" stroke-width="4"/>
<path d="M280.177 94.3965C271.855 134.294 173.499 139.896 153.677 139.896C101.655 145.823 126.625 208.262 136.177 239.396C128.677 240.396 129.677 249.396 100.677 177.896C77.4772 120.696 143.183 85.8337 191.999 73.9995C240.815 62.1653 259.499 45.502 259.499 45.502C280.177 54 285.116 70.7185 280.177 94.3965Z" fill="black"/>
<path d="M275.134 167.947L259.316 114.507L269.354 105.364C280.109 142.452 280.601 163.988 275.134 167.947Z" fill="black"/>
<path d="M150 213C144.4 185.8 130.333 190.667 121 192L111 148L151.584 139.506C152.336 139.266 153.141 139.095 154 139L151.584 139.506C133.433 145.299 145.956 191.796 161 211L150 213Z" fill="black"/>
<path d="M94.9887 110.363C103.834 105.909 114.281 108.487 118.398 110.333L106.627 125.213C109.663 120.357 100.133 113.29 94.9887 110.363Z" fill="black"/>
<path d="M80 127.5C91.6 120.7 102.833 123 107 125L102.5 140.5C101.3 132.1 87 128.333 80 127.5Z" fill="black"/>
<path d="M132.5 191.176C130.17 190.408 127.655 190 125.08 190C114.587 190 106.08 196.5 107.08 208.5C108.122 221 115.587 225.5 126.08 225.5C127.248 225.5 128.391 225.397 129.5 225.201C130.711 224.987 131.881 224.661 133 224.235" stroke="#171921" stroke-width="8"/>
<path d="M133.5 224.036C131.22 224.979 128.713 225.5 126.08 225.5C115.587 225.5 108.122 221 107.08 208.5C106.08 196.5 114.587 190 125.08 190C128.217 190 131.267 190.606 134 191.73L133.5 224.036Z" fill="#AC6651"/>
<path d="M129.5 198.5C125.5 196.667 116.7 195.7 113.5 206.5" stroke="#171921" stroke-width="4"/>
<path d="M119 199C121.167 200.833 125.3 206.5 124.5 214.5" stroke="#171921" stroke-width="4"/>
</g>
<defs>
<clipPath id="clip0">
<rect width="400" height="400" rx="200" fill="white"/>
</clipPath>
<clipPath id="clip1">
<rect width="200" height="320" fill="white" transform="translate(102 57)"/>
</clipPath>
</defs>
</svg>
