<svg width="1400" height="1400" viewBox="0 0 1400 1400" fill="none" xmlns="http://www.w3.org/2000/svg">
<g filter="url(#filter0_d)">
<circle cx="700" cy="696" r="696" fill="#E0DDFF"/>
<mask id="mask0" mask-type="alpha" maskUnits="userSpaceOnUse" x="4" y="0" width="1392" height="1392">
<circle cx="700" cy="696" r="696" fill="#FFEDEF"/>
</mask>
<g mask="url(#mask0)">
<path d="M897.694 1364.4C844.944 1291.14 803.672 1112.87 798.788 1042.04L547.862 933.98L443.462 1364.4H897.694Z" fill="#FC909F" stroke="black" stroke-width="14.6526"/>
<mask id="mask1" mask-type="alpha" maskUnits="userSpaceOnUse" x="443" y="933" width="455" height="432">
<path d="M897.694 1364.4C844.944 1291.14 803.672 1112.87 798.788 1042.04L547.862 933.98L443.462 1364.4H897.694Z" fill="#FFEDEF"/>
</mask>
<g mask="url(#mask1)">
<ellipse cx="787.915" cy="926.781" rx="216.126" ry="197.811" fill="black"/>
</g>
<g clip-path="url(#clip0)">
<path d="M897.798 1327.9C845.049 1254.63 803.777 1112.99 798.893 1042.17L547.966 934.106L443.566 1327.9H897.798Z" fill="#77311D" stroke="black" stroke-width="14.6526"/>
<mask id="mask2" mask-type="alpha" maskUnits="userSpaceOnUse" x="443" y="934" width="455" height="431">
<path d="M897.798 1364.53C845.049 1291.27 803.777 1112.99 798.893 1042.17L547.966 934.106L443.566 1364.53H897.798Z" fill="#AC6651"/>
</mask>
<g mask="url(#mask2)">
<g style="mix-blend-mode:multiply">
<ellipse cx="787.904" cy="926.78" rx="216.126" ry="197.811" fill="black"/>
</g>
</g>
<mask id="path-9-inside-1" fill="white">
<path fill-rule="evenodd" clip-rule="evenodd" d="M1007.28 710.354C1007.18 709.929 1007.08 709.504 1006.98 709.079C1006.87 708.654 1006.77 708.23 1006.67 707.806L946.603 457.109C946.545 456.862 946.486 456.615 946.427 456.368C946.368 456.12 946.308 455.873 946.248 455.627L945.981 454.511L945.976 454.512C908.545 302.693 755.511 209.343 603.218 245.831C450.925 282.319 356.81 434.884 392.243 587.182L392.236 587.183L454.478 846.967L454.529 846.955C493.369 996.795 645.27 1088.51 796.44 1052.29C947.61 1016.07 1041.46 865.477 1008.18 714.305L1008.22 714.294L1007.28 710.354Z"/>
</mask>
<path fill-rule="evenodd" clip-rule="evenodd" d="M1007.28 710.354C1007.18 709.929 1007.08 709.504 1006.98 709.079C1006.87 708.654 1006.77 708.23 1006.67 707.806L946.603 457.109C946.545 456.862 946.486 456.615 946.427 456.368C946.368 456.12 946.308 455.873 946.248 455.627L945.981 454.511L945.976 454.512C908.545 302.693 755.511 209.343 603.218 245.831C450.925 282.319 356.81 434.884 392.243 587.182L392.236 587.183L454.478 846.967L454.529 846.955C493.369 996.795 645.27 1088.51 796.44 1052.29C947.61 1016.07 1041.46 865.477 1008.18 714.305L1008.22 714.294L1007.28 710.354Z" fill="#77311D"/>
<path d="M1007.28 710.354L993.014 713.704L993.022 713.736L993.029 713.768L1007.28 710.354ZM1006.98 709.079L1021.23 705.665L1021.23 705.664L1006.98 709.079ZM1006.67 707.806L992.419 711.22L992.426 711.251L992.434 711.283L1006.67 707.806ZM946.603 457.109L932.345 460.486L932.35 460.505L932.354 460.523L946.603 457.109ZM946.248 455.627L931.999 459.041L932.003 459.059L932.008 459.078L946.248 455.627ZM945.981 454.511L960.23 451.097L956.821 436.868L942.587 440.257L945.981 454.511ZM945.976 454.512L931.749 458.02L935.229 472.133L949.37 468.766L945.976 454.512ZM603.218 245.831L606.632 260.081L603.218 245.831ZM392.243 587.182L395.675 601.427L409.809 598.022L406.514 583.861L392.243 587.182ZM392.236 587.183L388.804 572.938L374.577 576.366L377.987 590.597L392.236 587.183ZM454.478 846.967L440.228 850.381L443.642 864.627L457.888 861.217L454.478 846.967ZM454.529 846.955L468.713 843.278L465.104 829.357L451.118 832.704L454.529 846.955ZM796.44 1052.29L793.026 1038.04L796.44 1052.29ZM1008.18 714.305L1004.76 700.056L990.775 703.407L993.868 717.455L1008.18 714.305ZM1008.22 714.294L1011.64 728.544L1025.89 725.13L1022.47 710.88L1008.22 714.294ZM1021.54 707.004C1021.44 706.558 1021.33 706.112 1021.23 705.665L992.727 712.493C992.823 712.896 992.919 713.299 993.014 713.704L1021.54 707.004ZM1021.23 705.664C1021.12 705.218 1021.01 704.773 1020.9 704.328L992.434 711.283C992.533 711.687 992.63 712.09 992.727 712.493L1021.23 705.664ZM932.354 460.523L992.419 711.22L1020.92 704.392L960.853 453.695L932.354 460.523ZM960.861 453.731C960.8 453.473 960.738 453.213 960.676 452.953L932.178 459.782C932.234 460.016 932.289 460.251 932.345 460.486L960.861 453.731ZM960.676 452.953C960.614 452.694 960.551 452.434 960.489 452.175L932.008 459.078C932.065 459.312 932.121 459.547 932.178 459.782L960.676 452.953ZM931.732 457.925L931.999 459.041L960.498 452.213L960.23 451.097L931.732 457.925ZM949.37 468.766L949.375 468.765L942.587 440.257L942.582 440.258L949.37 468.766ZM960.202 451.005C920.845 291.37 759.935 193.216 599.804 231.582L606.632 260.081C751.087 225.47 896.246 314.017 931.749 458.02L960.202 451.005ZM599.804 231.582C439.673 269.948 340.714 430.365 377.972 590.502L406.514 583.861C372.906 439.404 462.177 294.691 606.632 260.081L599.804 231.582ZM395.668 601.428L395.675 601.427L388.811 572.937L388.804 572.938L395.668 601.428ZM468.727 843.553L406.485 583.769L377.987 590.597L440.228 850.381L468.727 843.553ZM451.118 832.704L451.067 832.717L457.888 861.217L457.939 861.205L451.118 832.704ZM440.345 850.631C481.185 1008.19 640.902 1104.62 799.854 1066.54L793.026 1038.04C649.637 1072.39 505.552 985.401 468.713 843.278L440.345 850.631ZM799.854 1066.54C958.806 1028.45 1057.48 870.113 1022.49 711.155L993.868 717.455C1025.43 860.842 936.415 1003.68 793.026 1038.04L799.854 1066.54ZM1004.81 700.045L1004.76 700.056L1011.59 728.555L1011.64 728.544L1004.81 700.045ZM993.029 713.768L993.973 717.708L1022.47 710.88L1021.53 706.94L993.029 713.768Z" fill="black" mask="url(#path-9-inside-1)"/>
</g>
<path d="M758.602 804.783C773.865 796.236 835.528 785.369 835.528 810.278C835.528 841.415 793.402 839.583 793.402 839.583C793.402 839.583 841.186 828.004 831.865 861.562C822.707 894.531 797.065 881.71 789.738 878.046" stroke="black" stroke-width="14.6526"/>
<path d="M732.967 318.694C786.694 316.252 880.959 286.458 828.209 186.82" stroke="black" stroke-width="14.6526"/>
<path d="M637.725 311.368C691.451 308.926 785.717 279.132 732.967 179.494" stroke="black" stroke-width="14.6526"/>
<path d="M505.852 351.662C559.578 349.22 653.843 319.426 601.094 219.789" stroke="black" stroke-width="14.6526"/>
<path d="M806.23 484.323C826.988 474.555 875.83 465.641 905.136 508.134" stroke="#FC909F" stroke-width="14.6526" stroke-linecap="round"/>
<path d="M529.952 577.026C537.537 555.375 565.418 514.294 616.265 523.183" stroke="#FC909F" stroke-width="14.6526" stroke-linecap="round"/>
<path d="M539.091 554.815L516.569 534.937" stroke="#FC909F" stroke-width="14.6526" stroke-linecap="round"/>
<path d="M894.003 487.777L916.526 467.898" stroke="#FC909F" stroke-width="14.6526" stroke-linecap="round"/>
<path d="M562.715 534.142L547.892 508.014" stroke="#FC909F" stroke-width="14.6526" stroke-linecap="round"/>
<path d="M866.716 474.43L881.54 448.302" stroke="#FC909F" stroke-width="14.6526" stroke-linecap="round"/>
<path d="M592.3 520.904L584.237 491.966" stroke="#FC909F" stroke-width="14.6526" stroke-linecap="round"/>
<path d="M833.469 472.182L841.531 443.244" stroke="#FC909F" stroke-width="14.6526" stroke-linecap="round"/>
<path d="M657.938 598.494C664.744 621.798 639.485 603.905 616.181 610.711C592.877 617.517 580.353 646.443 573.547 623.14C566.742 599.836 580.116 575.427 603.42 568.622C626.724 561.816 651.132 575.19 657.938 598.494Z" fill="#6BD9E9"/>
<path d="M891.616 564.82C897.604 588.347 874.422 570.388 850.895 576.377C827.368 582.365 812.405 610.032 806.416 586.505C800.428 562.978 814.646 539.051 838.173 533.063C861.701 527.074 885.628 541.292 891.616 564.82Z" fill="#6BD9E9"/>
<path fill-rule="evenodd" clip-rule="evenodd" d="M580.331 634.076C580.749 637.053 584.534 637.717 586.639 635.569C595.669 626.353 609.552 619.582 625.667 617.667C635.172 616.538 644.318 617.232 652.466 619.397C655.227 620.13 657.942 617.798 656.978 615.108C650.877 598.091 633.659 586.906 614.943 589.13C593.18 591.716 577.634 611.455 580.22 633.218C580.254 633.505 580.291 633.791 580.331 634.076Z" fill="black"/>
<path fill-rule="evenodd" clip-rule="evenodd" d="M815.132 597.444C815.546 600.422 819.33 601.087 821.438 598.942C830.385 589.836 844.119 583.148 860.056 581.255C869.45 580.138 878.489 580.821 886.546 582.952C889.309 583.683 892.023 581.351 891.055 578.663C884.993 561.836 867.952 550.782 849.432 552.983C827.871 555.545 812.469 575.101 815.031 596.661C815.062 596.923 815.096 597.184 815.132 597.444Z" fill="black"/>
<path d="M750.475 633.615C751.22 647.69 756.695 677.871 772.632 685.988C792.554 696.136 776.936 729.773 739.641 727.616" stroke="black" stroke-width="14.6526"/>
<path d="M895.305 1347.27C893.516 1347.16 892.026 1347.05 890.851 1346.96C868.321 1312.56 847.792 1255.82 831.886 1197.54C816.421 1140.88 805.563 1083.65 801.481 1045.85C937.286 1006.59 1022.41 866.424 1001.94 721.81C1001.92 721.599 1001.9 721.44 1001.89 721.382L1001.89 721.358C1001.86 721.139 1001.82 720.889 1001.78 720.63C1001.69 720.105 1001.57 719.403 1001.41 718.55C1001.1 716.837 1000.64 714.421 1000.05 711.395C998.857 705.339 997.111 696.787 994.876 686.434C990.408 665.73 983.979 637.776 976.135 608.125C968.295 578.492 959.014 547.06 948.831 519.44C938.723 492.021 927.472 467.631 915.466 452.627L914.38 451.27L912.786 450.579C905.707 447.508 898.358 444.087 890.688 440.515C854.308 423.576 810.682 403.264 754.184 401.029C685.408 398.309 598.311 422.187 480.578 507.575L473.168 512.949L480.295 518.692C538.635 565.705 551.248 628.063 548.553 680.999C546.495 721.398 535.55 755.766 529.374 772.945C525.12 766.73 522.41 758.917 520.373 749.741C518.965 743.398 517.938 736.715 516.862 729.715L516.692 728.607C515.568 721.302 514.37 713.681 512.624 706.322C509.138 691.629 503.244 676.944 490.161 666.544C477.049 656.122 457.939 650.958 430.11 652.511L421.951 652.967L423.654 660.959L465.263 856.253L465.333 856.581L465.434 856.901C480.298 904.016 505.788 944.856 538.379 977.097C538.656 977.561 539.061 978.244 539.577 979.126C540.636 980.938 542.162 983.592 544.011 986.925C547.71 993.595 552.685 1002.96 557.787 1013.75C568.096 1035.54 578.521 1062.3 580.53 1084.14C582.569 1106.31 576.994 1134.91 570.613 1158.54C567.454 1170.24 564.16 1180.5 561.656 1187.83C561.134 1189.36 560.647 1190.75 560.204 1192.01C541.769 1183.2 525.305 1183.86 511.194 1192.07C495.942 1200.95 484.772 1217.93 476.456 1236.82C461.26 1271.33 453.952 1316.09 450.58 1343.86C359.475 1322.97 289.13 1301.75 241.266 1285.63C216.673 1277.35 198.016 1270.42 185.529 1265.56C179.286 1263.13 174.585 1261.22 171.456 1259.93C170.679 1259.61 169.999 1259.32 169.417 1259.08C168.856 1257.64 168.087 1255.63 167.153 1253.08C165.076 1247.39 162.186 1239.03 158.969 1228.39C152.532 1207.1 144.8 1176.74 139.645 1140.55C129.325 1068.11 129.401 972.76 170.403 880.037C177.03 865.05 185.312 849.652 194.288 832.964C228.971 768.485 274.016 684.74 274.016 530.939C274.016 418.881 328.406 324.508 408.48 257.98C488.627 191.392 594.193 153 695.578 153C751.006 153.001 795.568 159.351 831.385 180.988C866.981 202.491 895.008 239.769 915.825 304.001C917.944 310.538 924.943 314.533 931.785 312.313C973.237 298.866 1036.08 312.44 1089.13 347.073C1141.95 381.553 1182.97 435.557 1182.97 500.646C1182.97 557.154 1173.29 595.337 1163.86 632.522C1152.43 677.54 1141.4 721.021 1149.18 791.861C1151.78 815.487 1157.06 832.24 1164.44 846.131C1171.7 859.798 1180.85 870.379 1190.5 881.531L1190.72 881.786C1213.7 908.353 1224.16 930.206 1227.54 949.431C1230.91 968.608 1227.38 986.001 1220.82 1004.05C1217.53 1013.11 1213.52 1022.22 1209.27 1031.81L1208.91 1032.63C1204.8 1041.91 1200.5 1051.63 1196.63 1061.85C1188.64 1082.99 1182.4 1106.57 1183.02 1134.51C1183.54 1158.23 1187.75 1174.48 1194.04 1186.78C1200.26 1198.94 1208.28 1206.72 1215.28 1213.51L1215.47 1213.69C1221.86 1219.88 1227.17 1225.08 1231.1 1232.38C1234.61 1238.91 1237.22 1247.52 1237.65 1260.45C1149.7 1312.76 1062.66 1334.38 997.292 1342.88C964.191 1347.19 936.687 1348.12 917.497 1347.99C907.904 1347.92 900.393 1347.59 895.305 1347.27Z" fill="#FC909F" stroke="black" stroke-width="14"/>
<path d="M460.055 660.012C451.519 657.201 442.305 655.706 432.874 655.706C394.435 655.706 363.274 679.516 366.937 723.474C370.753 769.263 398.098 785.748 436.537 785.748C440.814 785.748 445.001 785.372 449.065 784.653C453.499 783.868 457.787 782.674 461.886 781.113" stroke="black" stroke-width="29.3053"/>
<path d="M463.718 780.385C455.367 783.838 446.181 785.748 436.537 785.748C398.098 785.748 370.753 769.263 366.937 723.474C363.274 679.516 394.435 655.706 432.874 655.706C444.367 655.706 455.537 657.927 465.549 662.041L463.718 780.385Z" fill="#77311D"/>
<path d="M449.065 686.844C434.412 680.128 402.177 676.587 390.455 716.149" stroke="black" stroke-width="14.6526"/>
<path d="M410.602 688.674C418.539 695.39 433.68 716.148 430.749 745.453" stroke="black" stroke-width="14.6526"/>
<path d="M447.233 765.6C495.788 765.6 535.149 804.961 535.149 853.516C535.149 902.07 495.788 941.432 447.233 941.432C398.679 941.432 359.317 902.07 359.317 853.516C359.317 830.104 372.138 811.39 383.39 793.074L386.791 787.579" stroke="#F4D150" stroke-width="14.6526"/>
<path d="M1188.53 1402.49H188.816C188.943 1402.23 189.07 1401.97 189.198 1401.71C205.846 1367.81 236.56 1305.26 276.535 1249.29C299.223 1217.53 324.624 1188.28 351.773 1167.71C378.925 1147.14 407.159 1135.73 435.843 1138.24C490.989 1143.06 540.108 1173.26 589.421 1203.57C594.093 1206.44 598.767 1209.32 603.449 1212.17C656.509 1244.51 710.996 1274.53 770.923 1261.39C791.197 1256.95 804.859 1247.43 813.458 1235.15C821.935 1223.03 824.981 1208.95 825.508 1196.08C826.036 1183.2 824.061 1171.02 822.01 1162.16C821.051 1158.02 820.062 1154.55 819.272 1152.01C832.552 1138.64 846.61 1130.86 861.127 1127.35C876.858 1123.55 893.68 1124.65 911.376 1129.88C947.018 1140.43 985.153 1167.44 1022.37 1202.17C1090.56 1265.81 1153.12 1352.89 1188.53 1402.49Z" fill="white" stroke="black" stroke-width="15.6575"/>
</g>
</g>
<defs>
<filter id="filter0_d" x="0" y="0" width="1400" height="1400" filterUnits="userSpaceOnUse" color-interpolation-filters="sRGB">
<feFlood flood-opacity="0" result="BackgroundImageFix"/>
<feColorMatrix in="SourceAlpha" type="matrix" values="0 0 0 0 0 0 0 0 0 0 0 0 0 0 0 0 0 0 127 0"/>
<feOffset dy="4"/>
<feGaussianBlur stdDeviation="2"/>
<feColorMatrix type="matrix" values="0 0 0 0 0 0 0 0 0 0 0 0 0 0 0 0 0 0 0.25 0"/>
<feBlend mode="normal" in2="BackgroundImageFix" result="effect1_dropShadow"/>
<feBlend mode="normal" in="SourceGraphic" in2="effect1_dropShadow" result="shape"/>
</filter>
<clipPath id="clip0">
<rect width="732.632" height="1172.21" fill="white" transform="translate(333.672 157.517)"/>
</clipPath>
</defs>
</svg>
