<svg width="1392" height="1392" viewBox="0 0 1392 1392" fill="none" xmlns="http://www.w3.org/2000/svg">
<circle cx="696" cy="696" r="696" fill="#FC909F"/>
<mask id="mask0" mask-type="alpha" maskUnits="userSpaceOnUse" x="0" y="0" width="1392" height="1392">
<circle cx="696" cy="696" r="696" fill="#FFEDEF"/>
</mask>
<g mask="url(#mask0)">
<g clip-path="url(#clip0)">
<path d="M893.811 1327.9C841.061 1254.63 799.79 1112.99 794.905 1042.17L543.979 934.106L439.579 1327.9H893.811Z" fill="#F9C9B6" stroke="black" stroke-width="14.6526"/>
<mask id="mask1" mask-type="alpha" maskUnits="userSpaceOnUse" x="439" y="934" width="455" height="431">
<path d="M893.811 1364.53C841.061 1291.27 799.79 1112.99 794.905 1042.17L543.979 934.106L439.579 1364.53H893.811Z" fill="#F9C9B6"/>
</mask>
<g mask="url(#mask1)">
<g style="mix-blend-mode:multiply">
<ellipse cx="783.916" cy="926.78" rx="216.126" ry="197.811" fill="black"/>
</g>
</g>
<mask id="path-6-inside-1" fill="white">
<path fill-rule="evenodd" clip-rule="evenodd" d="M1003.29 710.354C1003.19 709.929 1003.09 709.504 1002.99 709.079C1002.89 708.654 1002.78 708.23 1002.68 707.806L942.616 457.109C942.557 456.862 942.498 456.615 942.439 456.368C942.38 456.12 942.32 455.873 942.261 455.627L941.993 454.511L941.988 454.512C904.558 302.693 751.523 209.343 599.23 245.831C446.937 282.319 352.822 434.884 388.255 587.182L388.248 587.183L450.49 846.967L450.541 846.955C489.381 996.795 641.282 1088.51 792.452 1052.29C943.623 1016.07 1037.47 865.477 1004.19 714.305L1004.23 714.294L1003.29 710.354Z"/>
</mask>
<path fill-rule="evenodd" clip-rule="evenodd" d="M1003.29 710.354C1003.19 709.929 1003.09 709.504 1002.99 709.079C1002.89 708.654 1002.78 708.23 1002.68 707.806L942.616 457.109C942.557 456.862 942.498 456.615 942.439 456.368C942.38 456.12 942.32 455.873 942.261 455.627L941.993 454.511L941.988 454.512C904.558 302.693 751.523 209.343 599.23 245.831C446.937 282.319 352.822 434.884 388.255 587.182L388.248 587.183L450.49 846.967L450.541 846.955C489.381 996.795 641.282 1088.51 792.452 1052.29C943.623 1016.07 1037.47 865.477 1004.19 714.305L1004.23 714.294L1003.29 710.354Z" fill="#F9C9B6"/>
<path d="M1003.29 710.354L989.026 713.704L989.034 713.736L989.042 713.768L1003.29 710.354ZM1002.99 709.079L1017.24 705.665L1017.24 705.664L1002.99 709.079ZM1002.68 707.806L988.431 711.22L988.439 711.251L988.446 711.283L1002.68 707.806ZM942.616 457.109L928.358 460.486L928.362 460.505L928.366 460.523L942.616 457.109ZM942.261 455.627L928.011 459.041L928.016 459.059L928.02 459.078L942.261 455.627ZM941.993 454.511L956.243 451.097L952.833 436.868L938.599 440.257L941.993 454.511ZM941.988 454.512L927.761 458.02L931.241 472.133L945.382 468.766L941.988 454.512ZM599.23 245.831L602.644 260.081L602.644 260.081L599.23 245.831ZM388.255 587.182L391.687 601.427L405.821 598.022L402.527 583.861L388.255 587.182ZM388.248 587.183L384.816 572.938L370.589 576.366L373.999 590.597L388.248 587.183ZM450.49 846.967L436.241 850.381L439.654 864.627L453.901 861.217L450.49 846.967ZM450.541 846.955L464.725 843.278L461.116 829.357L447.13 832.704L450.541 846.955ZM792.452 1052.29L789.038 1038.04L789.038 1038.04L792.452 1052.29ZM1004.19 714.305L1000.78 700.056L986.787 703.407L989.88 717.455L1004.19 714.305ZM1004.23 714.294L1007.65 728.544L1021.9 725.13L1018.48 710.88L1004.23 714.294ZM1017.56 707.004C1017.45 706.558 1017.34 706.112 1017.24 705.665L988.739 712.493C988.836 712.896 988.931 713.299 989.026 713.704L1017.56 707.004ZM1017.24 705.664C1017.13 705.218 1017.02 704.773 1016.91 704.328L988.446 711.283C988.545 711.687 988.643 712.09 988.739 712.493L1017.24 705.664ZM928.366 460.523L988.431 711.22L1016.93 704.392L956.865 453.695L928.366 460.523ZM956.874 453.731C956.812 453.473 956.751 453.213 956.688 452.953L928.19 459.782C928.246 460.016 928.302 460.251 928.358 460.486L956.874 453.731ZM956.688 452.953C956.626 452.694 956.564 452.434 956.501 452.175L928.02 459.078C928.077 459.312 928.133 459.547 928.19 459.782L956.688 452.953ZM927.744 457.925L928.011 459.041L956.51 452.213L956.243 451.097L927.744 457.925ZM945.382 468.766L945.387 468.765L938.599 440.257L938.594 440.258L945.382 468.766ZM956.215 451.005C916.857 291.37 755.948 193.216 595.816 231.582L602.644 260.081C747.099 225.47 892.258 314.017 927.761 458.02L956.215 451.005ZM595.816 231.582C435.685 269.948 336.727 430.365 373.984 590.502L402.527 583.861C368.918 439.404 458.19 294.691 602.644 260.081L595.816 231.582ZM391.68 601.428L391.687 601.427L384.823 572.937L384.816 572.938L391.68 601.428ZM464.739 843.553L402.497 583.769L373.999 590.597L436.241 850.381L464.739 843.553ZM447.13 832.704L447.079 832.717L453.901 861.217L453.952 861.205L447.13 832.704ZM436.357 850.631C477.197 1008.19 636.914 1104.62 795.866 1066.54L789.038 1038.04C645.649 1072.39 501.564 985.401 464.725 843.278L436.357 850.631ZM795.866 1066.54C954.818 1028.45 1053.49 870.113 1018.5 711.155L989.88 717.455C1021.45 860.842 932.427 1003.68 789.038 1038.04L795.866 1066.54ZM1000.82 700.045L1000.78 700.056L1007.6 728.555L1007.65 728.544L1000.82 700.045ZM989.042 713.768L989.986 717.708L1018.48 710.88L1017.54 706.94L989.042 713.768Z" fill="black" mask="url(#path-6-inside-1)"/>
</g>
<circle cx="612.793" cy="583.405" r="43.9579" transform="rotate(-6.27568 612.793 583.405)" fill="#D2EFF3"/>
<ellipse cx="617.519" cy="616.972" rx="32.9684" ry="49.4526" transform="rotate(-6.77646 617.519 616.972)" fill="black"/>
<circle cx="846.426" cy="551.799" r="43.9579" transform="rotate(-6.27568 846.426 551.799)" fill="#D2EFF3"/>
<ellipse cx="851.962" cy="580.34" rx="32.9684" ry="49.4526" transform="rotate(-6.27568 851.962 580.34)" fill="black"/>
<path d="M802.231 484.323C822.989 474.555 871.831 465.641 901.137 508.134" stroke="black" stroke-width="14.6526" stroke-linecap="round"/>
<path d="M525.953 577.026C533.539 555.375 561.42 514.294 612.267 523.183" stroke="black" stroke-width="14.6526" stroke-linecap="round"/>
<path d="M535.093 554.815L512.57 534.937" stroke="black" stroke-width="14.6526" stroke-linecap="round"/>
<path d="M890.005 487.777L912.527 467.898" stroke="black" stroke-width="14.6526" stroke-linecap="round"/>
<path d="M558.717 534.142L543.894 508.014" stroke="black" stroke-width="14.6526" stroke-linecap="round"/>
<path d="M862.717 474.43L877.541 448.302" stroke="black" stroke-width="14.6526" stroke-linecap="round"/>
<path d="M588.301 520.904L580.238 491.966" stroke="black" stroke-width="14.6526" stroke-linecap="round"/>
<path d="M829.47 472.182L837.532 443.244" stroke="black" stroke-width="14.6526" stroke-linecap="round"/>
<path d="M604.244 438.6C611.158 439.691 611.157 439.696 611.156 439.702L611.154 439.714L611.15 439.741L611.139 439.809C611.13 439.859 611.119 439.921 611.106 439.994C611.079 440.14 611.043 440.33 610.994 440.565C610.896 441.035 610.75 441.681 610.538 442.5C610.113 444.137 609.426 446.461 608.337 449.437C606.159 455.39 602.381 463.937 595.908 474.797C584.297 494.275 564.034 521.165 528.814 553.881C638.601 556.618 730.303 521.25 795.571 484.16C829.86 464.675 856.788 444.75 875.122 429.717C884.286 422.202 891.296 415.917 895.995 411.529C898.345 409.335 900.116 407.616 901.291 406.456C901.878 405.876 902.316 405.436 902.602 405.146C902.745 405.001 902.85 404.893 902.917 404.825L902.988 404.751L903.002 404.737L903.004 404.735L911.361 396.04L914.764 407.613L908.048 409.588C914.764 407.613 914.764 407.614 914.765 407.616L914.767 407.624L914.777 407.655L914.813 407.778L914.956 408.266C915.082 408.695 915.269 409.334 915.514 410.17C916.003 411.843 916.722 414.306 917.642 417.471C919.483 423.802 922.128 432.943 925.35 444.186C931.794 466.672 940.544 497.576 949.77 531.245C968.186 598.45 988.614 677.088 996.268 721.617C1009.06 796.046 989.279 852.555 977.577 885.982C975.302 892.48 973.333 898.105 971.968 902.821C972.163 902.985 972.42 903.186 972.754 903.423C974.941 904.974 978.82 906.761 984.426 908.543C995.473 912.054 1011.24 914.933 1028.1 916.556C1044.93 918.176 1062.45 918.506 1076.95 917.09C1084.21 916.381 1090.53 915.254 1095.55 913.721C1100.37 912.248 1103.38 910.582 1105.01 909.077C1105.06 908.762 1105.13 908.009 1104.95 906.557C1104.59 903.715 1103.46 899.713 1101.51 894.419C1098.61 886.518 1094.3 876.845 1089.26 865.534C1087.56 861.698 1085.77 857.675 1083.92 853.469C1069.52 820.723 1052.21 778.139 1048.43 734.752C1044.24 686.544 1053.77 645.314 1062.33 608.253L1062.74 606.487C1071.49 568.611 1078.76 535.719 1071.29 502.385C1059.95 451.796 1044.48 409.678 1020.72 379.413C997.219 349.471 965.339 330.783 920.003 327.346L915.321 326.992L913.873 322.525C893.013 258.162 864.851 216.106 828.94 190.026C793.041 163.956 748.514 153.209 693.626 153.209C592.202 153.209 482.984 191.742 401.022 258.408C319.145 325.005 264.96 419.205 272.05 530.703C279.874 653.754 270.956 747.056 250.846 815.377C232.508 877.675 204.716 919.65 171.401 944.135C175.772 946.367 181.599 949.202 188.878 952.446C207.293 960.654 235 971.49 271.935 981.853C342.761 1001.72 447.567 1019.87 585.91 1014.41C555.415 988.213 524.648 956.427 500.286 922.828C472.326 884.266 452.171 842.448 451.58 803.499C450.88 757.245 454.013 636.213 454.982 611.159C457.233 552.928 494.621 508.042 530.215 478.186C548.115 463.171 565.848 451.711 579.096 444.005C585.727 440.147 591.253 437.22 595.139 435.249C597.083 434.263 598.618 433.515 599.677 433.009C600.207 432.756 600.618 432.564 600.902 432.432C600.978 432.397 601.044 432.366 601.102 432.34C601.152 432.317 601.196 432.297 601.232 432.28L601.323 432.238L601.35 432.226L601.359 432.222C601.362 432.221 601.365 432.22 604.244 438.6ZM604.244 438.6L611.158 439.691L613.177 426.891L601.365 432.22L604.244 438.6ZM971.405 902.242C971.414 902.242 971.457 902.291 971.509 902.388C971.422 902.29 971.396 902.242 971.405 902.242Z" fill="black" stroke="black" stroke-width="14"/>
<path d="M915.79 326.021C917.621 342.505 914.691 375.473 910.295 397.452" stroke="black" stroke-width="14.6526"/>
<path d="M746.487 633.615C747.232 647.69 752.707 677.871 768.644 685.988C788.566 696.136 772.948 729.773 735.654 727.616" stroke="black" stroke-width="14.6526"/>
<path d="M479.873 667.609V663.509L476.379 661.365C462.701 652.971 446.069 648.379 428.882 648.379C408.221 648.379 388.877 654.78 375.099 667.776C361.166 680.917 353.649 700.13 355.644 724.082C357.589 747.423 365.425 764.601 378.421 776.016C377.354 779.676 377.039 783.622 377.533 787.774C378.959 799.747 385.012 808.374 394.365 813.689C403.281 818.756 414.692 820.547 426.846 820.547C446.917 820.547 464.517 809.752 477.917 795.313L479.873 793.205V790.329V667.609Z" stroke="black" stroke-width="14.6526"/>
<path fill-rule="evenodd" clip-rule="evenodd" d="M501.751 725.24C502.012 722.855 502.145 720.432 502.145 717.979C502.145 680.552 467.321 655.706 428.882 655.706C390.443 655.706 359.283 679.516 362.945 723.474C364.984 747.935 373.737 764.032 387.308 773.722C385.153 777.472 384.21 781.878 384.809 786.908C387.113 806.255 403.63 813.221 426.846 813.221C467.529 813.221 499.717 761.76 501.751 725.24Z" fill="#F9C9B6"/>
<path d="M445.073 686.844C430.421 680.128 398.185 676.587 386.463 716.149" stroke="black" stroke-width="14.6526"/>
<path d="M406.61 688.674C414.547 695.39 429.688 716.148 426.758 745.453" stroke="black" stroke-width="14.6526"/>
<circle cx="421.263" cy="791.242" r="14.6526" fill="white"/>
<circle cx="424.927" cy="787.579" r="3.66316" fill="#FFEDEF"/>
<path d="M695.161 1317.19C695.162 1317.19 695.162 1317.19 699.664 1311.41L695.162 1317.19L701.469 1322.1L705.813 1315.39L705.814 1315.39L705.82 1315.38L705.855 1315.33C705.887 1315.28 705.937 1315.2 706.005 1315.1C706.065 1315.01 706.138 1314.9 706.225 1314.77C706.336 1314.6 706.469 1314.4 706.623 1314.17C707.174 1313.34 707.999 1312.12 709.077 1310.57C711.233 1307.45 714.4 1302.99 718.412 1297.66C726.447 1286.98 737.819 1272.88 751.21 1259.09C764.636 1245.27 779.879 1231.98 795.63 1222.74C811.441 1213.46 827.057 1208.66 841.548 1210.61C997.008 1231.57 1111.41 1300.43 1185.67 1402.99H184.53C244.239 1295.51 329.164 1227.09 466.85 1195.7C472.718 1194.36 480.695 1194.77 490.67 1197.09C500.542 1199.39 511.797 1203.42 523.936 1208.75C548.21 1219.42 575.309 1234.98 600.774 1251.1C626.2 1267.2 649.81 1283.73 667.075 1296.24C675.704 1302.5 682.737 1307.75 687.609 1311.42C690.045 1313.26 691.939 1314.71 693.222 1315.69C693.477 1315.89 693.709 1316.07 693.915 1316.23C694.227 1316.47 694.481 1316.66 694.678 1316.82C694.841 1316.94 694.964 1317.04 695.045 1317.1L695.135 1317.17L695.156 1317.19L695.161 1317.19Z" fill="#9287FF" stroke="black" stroke-width="14.6526"/>
<path d="M423.508 1205.49L442.434 1135.04C443.201 1132.19 446.892 1131.38 448.885 1133.56C503.331 1193.14 572.038 1190.81 594.843 1188.07C597.939 1187.7 600.363 1191.09 598.908 1193.85L550.712 1285.25C549.974 1286.65 548.462 1287.43 546.911 1287.1C532.447 1284.09 460.377 1266.47 423.933 1208.36C423.399 1207.51 423.247 1206.46 423.508 1205.49Z" fill="#E0DDFF" stroke="black" stroke-width="14.6526"/>
<path d="M901.849 1205.11L859.428 1133.75C857.987 1131.32 854.439 1131.36 852.904 1133.73C831.889 1166.09 795.643 1181 782.968 1185.41C780.688 1186.2 779.645 1188.91 780.874 1190.99L830.337 1274.56C831.075 1275.81 832.469 1276.48 833.863 1276.09C841.683 1273.86 868.517 1262.64 901.801 1208.92C902.517 1207.77 902.543 1206.28 901.849 1205.11Z" fill="#E0DDFF" stroke="black" stroke-width="14.6526"/>
<path d="M631.895 1269.29L598.926 1190.53L573.284 1245.48L631.895 1269.29Z" fill="black" stroke="black" stroke-width="14.6526" stroke-linejoin="round"/>
<path d="M747.285 1265.62L780.253 1186.86L805.896 1241.81L747.285 1265.62Z" fill="black" stroke="black" stroke-width="14.6526" stroke-linejoin="round"/>
<path d="M489.032 1120.93L445.074 1131.92L481.706 1155.73L489.032 1120.93Z" fill="black" stroke="black" stroke-width="14.6526" stroke-linejoin="round"/>
<path d="M816.885 1120.93L857.18 1131.92L831.538 1155.73L816.885 1120.93Z" fill="black" stroke="black" stroke-width="14.6526" stroke-linejoin="round"/>
<path d="M699.63 852.521C717.728 876.137 745.152 902.299 787.458 896.333C829.764 890.367 848.587 861.184 843.037 837.55" stroke="black" stroke-width="14.6526"/>
</g>
<defs>
<clipPath id="clip0">
<rect width="732.632" height="1172.21" fill="white" transform="translate(329.685 157.517)"/>
</clipPath>
</defs>
</svg>
