<svg width="176" height="56" viewBox="0 0 176 56" fill="none" xmlns="http://www.w3.org/2000/svg">
<g clip-path="url(#clip0)">
<path d="M93.1188 14.3424C93.1188 16.3183 91.5334 17.9101 89.5652 17.9101C87.5971 17.9101 86.0117 16.3183 86.0117 14.3424C86.0117 12.3664 87.5424 10.7746 89.5652 10.7746C91.588 10.8295 93.1188 12.4213 93.1188 14.3424ZM78.4671 21.5327C78.4671 21.8621 78.4671 22.4109 78.4671 22.4109C78.4671 22.4109 76.7723 20.2154 73.1641 20.2154C67.205 20.2154 62.558 24.7711 62.558 31.0833C62.558 37.3405 67.1504 41.9511 73.1641 41.9511C76.827 41.9511 78.4671 39.7007 78.4671 39.7007V40.6338C78.4671 41.0729 78.7952 41.4023 79.2325 41.4023H83.6608V20.7643C83.6608 20.7643 79.6152 20.7643 79.2325 20.7643C78.7952 20.7643 78.4671 21.1485 78.4671 21.5327ZM78.4671 34.7608C77.6471 35.9683 76.007 37.0112 74.0388 37.0112C70.5399 37.0112 67.8611 34.8157 67.8611 31.0833C67.8611 27.3509 70.5399 25.1554 74.0388 25.1554C75.9523 25.1554 77.7017 26.2531 78.4671 27.4058V34.7608ZM86.941 20.7643H92.1894V41.4023H86.941V20.7643ZM165.338 20.2154C161.73 20.2154 160.035 22.4109 160.035 22.4109V10.8295H154.787V41.4023C154.787 41.4023 158.833 41.4023 159.215 41.4023C159.653 41.4023 159.981 41.018 159.981 40.6338V39.7007C159.981 39.7007 161.676 41.9511 165.284 41.9511C171.243 41.9511 175.89 37.3405 175.89 31.0833C175.89 24.826 171.243 20.2154 165.338 20.2154ZM164.464 36.9563C162.441 36.9563 160.855 35.9134 160.035 34.7059V27.3509C160.855 26.2531 162.605 25.1005 164.464 25.1005C167.963 25.1005 170.641 27.296 170.641 31.0284C170.641 34.7608 167.963 36.9563 164.464 36.9563ZM152.054 29.1622V41.4572H146.805V29.766C146.805 26.3629 145.712 24.9907 142.76 24.9907C141.174 24.9907 139.534 25.814 138.495 27.0216V41.4023H133.247V20.7643H137.402C137.839 20.7643 138.167 21.1485 138.167 21.5327V22.4109C139.698 20.8192 141.721 20.2154 143.744 20.2154C146.04 20.2154 147.953 20.8741 149.484 22.1914C151.343 23.7283 152.054 25.7042 152.054 29.1622ZM120.509 20.2154C116.9 20.2154 115.206 22.4109 115.206 22.4109V10.8295H109.957V41.4023C109.957 41.4023 114.003 41.4023 114.386 41.4023C114.823 41.4023 115.151 41.018 115.151 40.6338V39.7007C115.151 39.7007 116.846 41.9511 120.454 41.9511C126.413 41.9511 131.06 37.3405 131.06 31.0833C131.115 24.826 126.468 20.2154 120.509 20.2154ZM119.634 36.9563C117.611 36.9563 116.026 35.9134 115.206 34.7059V27.3509C116.026 26.2531 117.775 25.1005 119.634 25.1005C123.133 25.1005 125.812 27.296 125.812 31.0284C125.812 34.7608 123.133 36.9563 119.634 36.9563ZM105.42 20.2154C107.005 20.2154 107.825 20.4899 107.825 20.4899V25.3749C107.825 25.3749 103.452 23.8929 100.718 27.0216V41.4572H95.4696V20.7643C95.4696 20.7643 99.5152 20.7643 99.8979 20.7643C100.335 20.7643 100.663 21.1485 100.663 21.5327V22.4109C101.647 21.2583 103.78 20.2154 105.42 20.2154ZM50.9132 39.5361C50.6399 38.8774 50.3665 38.1639 50.0932 37.5601C49.6558 36.5721 49.2185 35.639 48.8358 34.7608L48.7811 34.7059C45.0088 26.4727 40.9632 18.1297 36.6989 9.89643L36.5349 9.5671C36.0976 8.74377 35.6602 7.86556 35.2228 6.98735C34.6761 5.99936 34.1294 4.95649 33.2547 3.9685C31.5052 1.77297 28.9904 0.56543 26.3116 0.56543C23.578 0.56543 21.1179 1.77297 19.3137 3.85872C18.4937 4.84671 17.8923 5.88959 17.3456 6.87757C16.9082 7.75579 16.4709 8.634 16.0335 9.45732L15.8695 9.78665C11.6599 18.0199 7.5596 26.3629 3.78734 34.5961L3.73267 34.7059C3.34998 35.5841 2.91262 36.5172 2.47525 37.5052C2.2019 38.109 1.92855 38.7676 1.6552 39.4812C0.94448 41.512 0.725799 43.4331 0.999151 45.4091C1.60053 49.5257 4.33405 52.9837 8.1063 54.5205C9.52774 55.1243 11.0038 55.3988 12.5346 55.3988C12.972 55.3988 13.5187 55.3439 13.956 55.289C15.7602 55.0694 17.619 54.4657 19.4231 53.4228C21.6646 52.1604 23.7967 50.349 26.2022 47.7144C28.6077 50.349 30.7945 52.1604 32.9813 53.4228C34.7855 54.4657 36.6443 55.0694 38.4484 55.289C38.8857 55.3439 39.4325 55.3988 39.8698 55.3988C41.4006 55.3988 42.9314 55.1243 44.2981 54.5205C48.125 52.9837 50.8039 49.4708 51.4053 45.4091C51.8426 43.488 51.624 41.5669 50.9132 39.5361ZM26.2569 42.3903C23.3047 38.6579 21.3912 35.145 20.7352 32.181C20.4618 30.9186 20.4072 29.8209 20.5712 28.8329C20.6805 27.9547 21.0085 27.1862 21.4459 26.5276C22.4846 25.0456 24.2341 24.1125 26.2569 24.1125C28.2797 24.1125 30.0838 24.9907 31.0679 26.5276C31.5052 27.1862 31.8333 27.9547 31.9426 28.8329C32.1066 29.8209 32.0519 30.9735 31.7786 32.181C31.1226 35.0901 29.2091 38.603 26.2569 42.3903ZM48.0704 44.97C47.6877 47.8242 45.7742 50.2942 43.0954 51.3919C41.7833 51.9408 40.3619 52.1055 38.9404 51.9408C37.5737 51.7761 36.2069 51.337 34.7855 50.5137C32.8173 49.4159 30.8492 47.7144 28.553 45.1896C32.1613 40.7436 34.3481 36.6819 35.1682 33.0593C35.5509 31.3577 35.6055 29.8209 35.4415 28.3938C35.2228 27.0216 34.7308 25.7591 33.9654 24.6614C32.2706 22.1914 29.4278 20.7643 26.2569 20.7643C23.086 20.7643 20.2431 22.2463 18.5484 24.6614C17.783 25.7591 17.2909 27.0216 17.0723 28.3938C16.8536 29.8209 16.9082 31.4126 17.3456 33.0593C18.1657 36.6819 20.4072 40.7985 23.9607 45.2444C21.7192 47.7693 19.6964 49.4708 17.7283 50.5686C16.3069 51.3919 14.9401 51.831 13.5733 51.9957C12.0972 52.1604 10.6758 51.9408 9.4184 51.4468C6.73954 50.349 4.82608 47.8791 4.44339 45.0249C4.27938 43.6527 4.38872 42.2805 4.93542 40.7436C5.09943 40.1947 5.37278 39.6458 5.64614 38.9872C6.02883 38.109 6.46619 37.1759 6.90356 36.2428L6.95823 36.133C10.7305 27.9547 14.7761 19.6116 18.9857 11.4882L19.1497 11.1589C19.5871 10.3355 20.0245 9.45732 20.4618 8.634C20.8992 7.75579 21.3912 6.93246 21.9926 6.21892C23.1407 4.9016 24.6714 4.18805 26.3662 4.18805C28.061 4.18805 29.5918 4.9016 30.7399 6.21892C31.3412 6.93246 31.8333 7.75579 32.2706 8.634C32.708 9.45732 33.1454 10.3355 33.5827 11.1589L33.7467 11.4882C37.9017 19.6665 41.9473 28.0095 45.7196 36.1879V36.2428C46.1569 37.121 46.5396 38.109 46.977 38.9872C47.2503 39.6458 47.5237 40.1947 47.6877 40.7436C48.125 42.1707 48.2891 43.5429 48.0704 44.97Z" fill="#C4C4C4"/>
</g>
<defs>
<clipPath id="clip0">
<rect width="175" height="54.8333" fill="white" transform="translate(0.889648 0.56543)"/>
</clipPath>
</defs>
</svg>
