<svg width="175" height="33" viewBox="0 0 175 33" fill="none" xmlns="http://www.w3.org/2000/svg">
<g clip-path="url(#clip0)">
<path d="M0 0H12.8297C15.2735 0 17.1063 0.606618 18.4639 1.61765C19.9573 2.83088 20.7719 4.58333 20.7719 6.7402C20.7719 9.23407 19.7537 10.7843 17.7172 11.7279V11.8627C20.4325 12.739 21.9938 15.1654 21.9938 18.0637C21.9938 20.8272 20.9077 22.9841 19.1427 24.3321C17.6493 25.4105 15.7486 25.8824 13.1691 25.8824H0V0ZM11.54 10.1103C12.8976 10.1103 13.9158 9.36887 13.9158 7.81863C13.9158 6.33578 12.8976 5.59436 11.4721 5.59436H7.05974V10.0429H11.54V10.1103ZM12.1509 20.1532C13.7122 20.1532 14.8662 19.2096 14.8662 17.5245C14.8662 15.7047 13.6443 14.8958 12.1509 14.8958H7.12762V20.2206H12.1509V20.1532Z" fill="#C4C4C4"/>
<path d="M23.1479 0H29.8683V25.9498H23.1479V0Z" fill="#C4C4C4"/>
<path d="M31.2256 16.7157C31.2256 10.8517 35.027 6.94238 40.9327 6.94238C46.8385 6.94238 50.572 10.9191 50.572 16.7157C50.572 22.5796 46.8385 26.4889 40.9327 26.4889C35.027 26.4889 31.2256 22.5796 31.2256 16.7157ZM43.8517 16.7157C43.8517 13.4804 42.8334 11.4583 40.797 11.4583C38.7605 11.4583 37.8101 13.4804 37.8101 16.7157C37.8101 19.951 38.7605 22.0404 40.797 22.0404C42.8334 21.973 43.8517 19.951 43.8517 16.7157Z" fill="#C4C4C4"/>
<path d="M51.3188 16.7157C51.3188 10.8517 55.1202 6.94238 61.026 6.94238C66.9317 6.94238 70.5974 10.8517 70.5974 16.7157C70.5974 22.5796 66.8638 26.4889 60.9581 26.4889C55.1202 26.4889 51.3188 22.5796 51.3188 16.7157ZM63.9449 16.7157C63.9449 13.4804 62.9267 11.4583 60.8902 11.4583C58.8538 11.4583 57.9034 13.4804 57.9034 16.7157C57.9034 19.951 58.8538 22.0404 60.8902 22.0404C62.9267 21.973 63.9449 19.951 63.9449 16.7157Z" fill="#C4C4C4"/>
<path d="M71.9551 7.41422H78.2002V10.1777H78.336C79.5579 8.02083 81.2549 6.875 83.9702 6.875C86.3461 6.875 88.111 8.02083 88.9935 10.0429H89.1292C90.6227 7.61642 92.5912 6.875 94.8992 6.875C99.2437 6.875 101.076 10.0429 101.076 14.2892V25.8824H94.5598V15.4351C94.5598 13.5478 93.9489 12.3346 92.3197 12.3346C90.6905 12.3346 89.8759 13.8174 89.8759 15.8395V25.8824H83.3593V15.4351C83.3593 13.5478 82.7483 12.3346 81.1192 12.3346C79.49 12.3346 78.6754 13.8174 78.6754 15.8395V25.8824H71.9551V7.41422Z" fill="#C4C4C4"/>
<path d="M109.29 23.4559H109.222V25.8824H102.977V0H109.494V9.30147H109.629C110.851 7.68382 112.548 6.8076 114.924 6.8076C119.608 6.8076 122.323 10.9865 122.323 16.5809C122.323 22.8493 119.405 26.489 114.517 26.489C112.481 26.489 110.376 25.5453 109.29 23.4559ZM115.603 16.5135C115.603 13.5478 114.517 11.5931 112.548 11.5931C110.512 11.5931 109.29 13.5478 109.29 16.5135C109.29 19.4792 110.58 21.4338 112.548 21.4338C114.517 21.4338 115.603 19.5466 115.603 16.5135Z" fill="#C4C4C4"/>
<path d="M123.07 16.6483C123.07 10.8517 126.94 6.875 132.506 6.875C135.289 6.875 137.393 7.75123 139.023 9.30147C141.195 11.3909 142.145 14.6262 142.077 18.4007H129.587C129.859 20.6924 130.945 21.9056 132.913 21.9056C134.067 21.9056 135.085 21.3664 135.493 20.1532H141.806C140.72 24.3995 137.393 26.489 132.71 26.489C126.94 26.4216 123.07 22.5123 123.07 16.6483ZM129.587 14.6936H135.561C135.425 12.4694 134.203 11.3235 132.642 11.3235C130.809 11.2561 129.791 12.5368 129.587 14.6936Z" fill="#C4C4C4"/>
<path d="M149.477 10.5821H149.612C150.97 8.02079 152.735 7.00977 154.975 7.00977C155.518 7.00977 155.857 7.07717 156.061 7.21197V12.8737H155.925C152.056 12.1997 149.816 14.0196 149.816 18.1985V25.9497H143.231V7.41418H149.477V10.5821Z" fill="#C4C4C4"/>
<path d="M156.74 25.9498H163.053C163.324 26.7586 164.139 27.5 165.7 27.5C167.805 27.5 168.551 26.2194 168.551 24.2647V22.9167H168.416C167.397 24.1299 165.972 25.0061 163.935 25.0061C159.93 25.0061 156.4 22.0405 156.4 16.2439C156.4 10.9191 159.251 6.80762 163.596 6.80762C166.108 6.80762 167.601 7.81865 168.619 9.36889H168.755V7.34683H175V23.3885C175 26.3542 173.982 28.6459 172.421 29.9939C170.791 31.4093 168.483 32.016 165.836 32.016C160.813 32.0834 157.351 30.0613 156.74 25.9498ZM168.823 15.9743C168.823 13.6826 167.737 11.7954 165.836 11.7954C164.003 11.7954 162.849 13.413 162.849 15.9743C162.849 18.4682 164.003 20.2206 165.836 20.2206C167.669 20.2206 168.823 18.4008 168.823 15.9743Z" fill="#C4C4C4"/>
</g>
<defs>
<clipPath id="clip0">
<rect width="175" height="32.0833" fill="white"/>
</clipPath>
</defs>
</svg>
