<svg width="175" height="35" viewBox="0 0 175 35" fill="none" xmlns="http://www.w3.org/2000/svg">
<g clip-path="url(#clip0)">
<path d="M20.3 6.46733L10.15 12.9347L20.3 19.402L10.15 25.8693L0 19.367L10.15 12.8997L0 6.46733L10.15 0L20.3 6.46733ZM10.0975 27.9493L20.2475 21.482L30.3975 27.9493L20.2475 34.4167L10.0975 27.9493ZM20.3 19.367L30.45 12.8997L20.3 6.46733L30.3975 0L40.5475 6.46733L30.3975 12.9347L40.5475 19.402L30.3975 25.8693L20.3 19.367Z" fill="#C4C4C4"/>
<path d="M48.5098 6.46736H56.7173C61.9498 6.46736 66.2723 9.49127 66.2723 16.3956V17.8464C66.2723 24.8031 62.2298 27.9319 56.8748 27.9319H48.5098V6.46736ZM53.0948 10.3652V24.0165H56.6123C59.5873 24.0165 61.5823 22.0763 61.5823 17.759V16.6228C61.5823 12.3054 59.4823 10.3652 56.4548 10.3652H53.0948ZM68.7048 10.575H72.3798L72.9748 14.6127C73.6748 11.8685 75.4598 10.4002 78.6973 10.4002H79.8348V15.0322H77.9448C74.2173 15.0322 73.3073 16.3257 73.3073 19.9963V27.9843H68.7748V10.575H68.7048ZM80.7448 19.6292V19.1398C80.7448 13.3192 84.4723 10.138 89.5473 10.138C94.7273 10.138 98.3498 13.3192 98.3498 19.1398V19.6292C98.3498 25.345 94.8323 28.4213 89.5473 28.4213C83.9298 28.3689 80.7448 25.3624 80.7448 19.6292ZM93.7123 19.5768V19.1398C93.7123 15.9062 92.0848 13.966 89.4948 13.966C86.9573 13.966 85.2773 15.7488 85.2773 19.1398V19.5768C85.2773 22.7056 86.9048 24.4885 89.4948 24.4885C92.0848 24.436 93.7123 22.7056 93.7123 19.5768ZM100.73 10.575H104.51L104.947 13.8611C105.857 11.6587 107.8 10.138 110.67 10.138C115.097 10.138 118.02 13.3192 118.02 19.2097V19.6992C118.02 25.4149 114.782 28.4388 110.67 28.4388C107.922 28.4388 106.032 27.1978 105.105 25.2051V33.9972H100.677L100.73 10.575ZM113.417 19.5768V19.1923C113.417 15.7314 111.632 14.0184 109.252 14.0184C106.715 14.0184 105.035 15.9586 105.035 19.1923V19.5244C105.035 22.6007 106.662 24.5409 109.2 24.5409C111.807 24.4885 113.417 22.8279 113.417 19.5768ZM124.722 24.7681L124.337 27.9494H120.452V4.75439H124.88V13.6513C125.86 11.379 127.802 10.138 130.55 10.138C134.715 10.1904 137.795 13.057 137.795 18.8252V19.3671C137.795 25.1352 134.872 28.4388 130.445 28.4388C127.522 28.3689 125.632 27.023 124.722 24.7681ZM133.14 19.3671V18.9301C133.14 15.7488 131.407 13.966 128.975 13.966C126.49 13.966 124.757 15.9586 124.757 18.9825V19.3671C124.757 22.6007 126.437 24.4885 128.922 24.4885C131.582 24.4885 133.14 22.8279 133.14 19.3671ZM139.737 19.6292V19.1398C139.737 13.3192 143.465 10.138 148.54 10.138C153.72 10.138 157.342 13.3192 157.342 19.1398V19.6292C157.342 25.345 153.772 28.4213 148.54 28.4213C142.922 28.3689 139.737 25.3624 139.737 19.6292ZM152.74 19.5768V19.1398C152.74 15.9062 151.112 13.966 148.522 13.966C145.985 13.966 144.305 15.7488 144.305 19.1398V19.5768C144.305 22.7056 145.932 24.4885 148.522 24.4885C151.13 24.436 152.74 22.7056 152.74 19.5768ZM163.275 18.9301L157.167 10.575H162.4L165.917 15.8013L169.487 10.575H174.667L168.472 18.8776L175 27.9494H169.872L165.882 22.1812L161.997 27.9494H156.642L163.275 18.9301Z" fill="#C4C4C4"/>
</g>
<defs>
<clipPath id="clip0">
<rect width="175" height="34.4167" fill="white"/>
</clipPath>
</defs>
</svg>
