<svg width="175" height="70" viewBox="0 0 175 70" fill="none" xmlns="http://www.w3.org/2000/svg">
<path d="M22.6719 15.3052C10.3369 15.3052 0.0581055 20.5242 0.0581055 36.2698C0.0581055 48.7438 6.96982 56.5991 22.9904 56.5991C41.8473 56.5991 43.0561 44.2109 43.0561 44.2109H33.919C33.919 44.2109 31.96 50.8815 22.433 50.8815C14.6735 50.8815 9.09262 45.6539 9.09262 38.3266H44.0116V33.7286C44.0116 26.4797 39.3974 15.3052 22.6719 15.3052ZM22.3534 21.1816C29.7396 21.1816 34.775 25.6944 34.775 32.458H9.29471C9.29471 25.2776 15.8672 21.1816 22.3534 21.1816Z" fill="#C4C4C4"/>
<path d="M44.0052 0.0581055V48.6917C44.0052 51.4523 43.8076 55.3285 43.8076 55.3285H52.5225C52.5225 55.3285 52.8353 52.5445 52.8353 50.0003C52.8353 50.0003 57.141 56.7182 68.8485 56.7182C81.1769 56.7182 89.5512 48.182 89.5512 35.9521C89.5512 24.5748 81.8592 15.4242 68.8684 15.4242C56.7034 15.4242 52.9233 21.9757 52.9233 21.9757V0.0581055H44.0052ZM66.6189 21.4396C74.9909 21.4396 80.3146 27.6364 80.3146 35.9521C80.3146 44.8692 74.1659 50.7027 66.6787 50.7027C57.7432 50.7027 52.9233 43.7448 52.9233 36.0315C52.9233 28.8442 57.2484 21.4396 66.6189 21.4396Z" fill="#C4C4C4"/>
<path d="M111.209 15.3052C92.6524 15.3052 91.4622 25.4388 91.4622 27.0581H100.699C100.699 27.0581 101.183 21.1419 110.572 21.1419C116.674 21.1419 121.402 23.927 121.402 29.2816V31.1875H110.572C96.196 31.1875 88.5957 35.3818 88.5957 43.8933C88.5957 52.2698 95.6182 56.8274 105.108 56.8274C118.042 56.8274 122.208 49.7003 122.208 49.7003C122.208 52.5351 122.427 55.3285 122.427 55.3285H130.638C130.638 55.3285 130.32 51.8659 130.32 49.6506V30.5025C130.32 17.9474 120.165 15.3052 111.209 15.3052ZM121.402 36.9051V39.4463C121.402 42.7606 119.351 51.0006 107.278 51.0006C100.667 51.0006 97.8323 47.7101 97.8323 43.8933C97.8323 36.9498 107.378 36.9051 121.402 36.9051Z" fill="#C4C4C4"/>
<path d="M125.346 16.895H135.737L150.65 46.6913L165.529 16.895H174.942L147.841 69.9418H137.967L145.787 55.1543L125.346 16.895Z" fill="#C4C4C4"/>
</svg>
