<svg width="175" height="65" viewBox="0 0 175 65" fill="none" xmlns="http://www.w3.org/2000/svg">
<g clip-path="url(#clip0)">
<path d="M101.351 40.1949L112.717 27.4377L101.351 14.6787H113.343L118.973 20.8762L124.394 14.6787H135.968L124.656 27.385L136.123 40.1949H124.081L118.503 33.9465L112.977 40.1949H101.351Z" fill="#C4C4C4"/>
<path d="M101.351 8.95881H88.4782V14.6786H101.351V23.2988H88.4782V31.2111H101.351V40.1948H79.0166V0H101.351V8.95881Z" fill="#C4C4C4"/>
<path d="M69.5949 0V16.4496H69.4912C67.4054 14.0547 64.7993 13.2225 61.7754 13.2225C55.5812 13.2225 50.9153 17.4287 49.2775 22.9898C47.4097 16.8622 42.5927 13.1076 35.4499 13.1076C29.6492 13.1076 25.0687 15.7086 22.6782 19.9468V14.6792H10.6882V8.96H23.7727V0H0V40.1954H10.6882V23.2988H21.3414C21.0238 24.5401 20.8543 25.869 20.8543 27.2713C20.8543 35.6559 27.2665 41.5391 35.4499 41.5391C42.3314 41.5391 46.8663 38.3119 49.265 32.4281H40.1057C38.8666 34.1956 37.9268 34.7207 35.4499 34.7207C32.5777 34.7207 30.1013 32.2174 30.1013 29.2501H48.7519C49.5607 35.9098 54.754 41.6533 61.8809 41.6533C64.9551 41.6533 67.7698 40.1427 69.4912 37.5921H69.5949V40.1942H79.0168V0H69.5949ZM30.3988 23.419C30.9932 20.866 32.9753 19.1974 35.4499 19.1974C38.1739 19.1974 40.0553 20.8145 40.5501 23.419C40.7587 23.419 30.3988 23.419 30.3988 23.419ZM63.8772 34.0749C60.4042 34.0749 58.246 30.8423 58.246 27.4672C58.246 23.8594 60.1233 20.3901 63.8772 20.3901C67.7698 20.3901 69.3206 23.8594 69.3206 27.4672C69.32 30.8885 67.6768 34.0749 63.8772 34.0749Z" fill="#C4C4C4"/>
<path d="M84.2046 59.453C85.6593 59.453 87.232 58.5977 87.5318 57.0664H88.9647C88.4479 59.2743 86.5345 60.5268 84.166 60.5268C79.7846 60.5268 78.0122 57.1457 78.0122 53.0892C78.0122 49.0322 79.7846 45.6499 84.166 45.6499C86.5351 45.6499 88.4479 46.9018 88.9647 49.1115H87.5318C87.2326 47.5784 85.6593 46.726 84.2046 46.726C80.6 46.726 79.3858 50.0071 79.3858 53.0904C79.3858 56.1708 80.6005 59.453 84.2046 59.453Z" fill="#C4C4C4"/>
<path d="M94.939 60.5269C91.8706 60.5269 90.2197 58.1603 90.2197 55.2564C90.2197 52.353 91.8706 49.9858 94.939 49.9858C98.0043 49.9858 99.6582 52.353 99.6582 55.2564C99.6582 58.1603 98.0043 60.5269 94.939 60.5269ZM94.939 59.6118C97.3483 59.6118 98.3634 57.4252 98.3634 55.2564C98.3634 53.0893 97.3483 50.9004 94.939 50.9004C92.529 50.9004 91.5127 53.0893 91.5127 55.2564C91.5127 57.4246 92.5284 59.6118 94.939 59.6118Z" fill="#C4C4C4"/>
<path d="M105.988 51.1576C103.978 51.1576 103.281 52.8499 103.281 54.5984V60.2898H102.067V53.1879C102.067 52.2148 102.046 51.2174 102.007 50.2235H103.2L103.281 51.6743C103.88 50.5224 104.874 49.9844 106.207 49.9844C106.387 49.9844 106.587 50.0045 106.767 50.0234V51.2381C106.486 51.1996 106.268 51.1576 105.988 51.1576Z" fill="#C4C4C4"/>
<path d="M109.347 64.0678H108.132V53.2272C108.132 52.2328 108.132 51.2176 108.071 50.225H109.266L109.306 51.7379C110.062 50.5417 111.059 49.9858 112.553 49.9858C115.658 49.9858 116.993 52.553 116.993 55.2564C116.993 57.9626 115.658 60.5269 112.553 60.5269C111.158 60.5269 110.064 59.993 109.347 58.8375V64.0678ZM115.699 55.2558C115.699 53.1088 114.802 50.9992 112.413 50.9992C110.164 50.9992 109.347 52.8508 109.347 55.2558C109.347 57.6637 110.164 59.5117 112.413 59.5117C114.802 59.5123 115.699 57.4056 115.699 55.2558Z" fill="#C4C4C4"/>
<path d="M123.247 60.5269C120.179 60.5269 118.527 58.1603 118.527 55.2564C118.527 52.353 120.179 49.9858 123.247 49.9858C126.312 49.9858 127.966 52.353 127.966 55.2564C127.966 58.1603 126.311 60.5269 123.247 60.5269ZM123.247 59.6118C125.655 59.6118 126.672 57.4252 126.672 55.2564C126.672 53.0893 125.655 50.9004 123.247 50.9004C120.836 50.9004 119.821 53.0893 119.821 55.2564C119.82 57.4246 120.835 59.6118 123.247 59.6118Z" fill="#C4C4C4"/>
<path d="M134.299 51.1576C132.287 51.1576 131.591 52.8499 131.591 54.5984V60.2898H130.376V53.1879C130.376 52.2148 130.356 51.2174 130.314 50.2235H131.511L131.591 51.6743C132.188 50.5224 133.184 49.9844 134.517 49.9844C134.698 49.9844 134.895 50.0045 135.074 50.0234V51.2381C134.797 51.1996 134.575 51.1576 134.299 51.1576Z" fill="#C4C4C4"/>
<path d="M142.23 60.2898C142.149 59.8098 142.111 59.473 142.072 58.9361C141.294 60.1081 140.28 60.5266 138.704 60.5266C136.872 60.5266 135.199 59.5931 135.199 57.564C135.199 54.6399 138.286 54.2024 140.756 54.2024C141.233 54.2024 141.633 54.222 141.93 54.2403V53.4844C141.93 51.7761 141.232 50.8989 139.46 50.8989C138.167 50.8989 137.251 51.3967 137.092 52.828H135.876C135.896 50.6615 137.788 49.9844 139.46 49.9844C141.95 49.9844 143.146 50.6615 143.146 53.147V56.5678C143.146 58.121 143.205 59.0355 143.386 60.2898H142.23ZM141.932 55.156C141.593 55.1371 141.315 55.1187 140.976 55.1187C139.303 55.1187 136.496 55.2164 136.496 57.5237C136.496 58.9166 137.65 59.6103 138.927 59.6103C140.958 59.6103 141.932 58.4187 141.932 56.0925V55.156Z" fill="#C4C4C4"/>
<path d="M148.403 60.5267C146.95 60.5267 146.273 59.6731 146.273 58.2205V51.1393H144.638V50.2242H146.273V48.175L147.487 47.6387V50.2242H149.718V51.1393H147.487V57.6849C147.487 59.096 147.725 59.5127 148.74 59.5127C149.121 59.5127 149.597 59.3754 149.817 59.254V60.2905C149.398 60.4083 149.04 60.5267 148.403 60.5267Z" fill="#C4C4C4"/>
<path d="M151.326 47.4186V45.9062H152.779V47.4186H151.326ZM151.445 60.2901V50.2244H152.66V60.2907L151.445 60.2901Z" fill="#C4C4C4"/>
<path d="M159.79 60.5269C156.722 60.5269 155.07 58.1603 155.07 55.2564C155.07 52.353 156.722 49.9858 159.79 49.9858C162.857 49.9858 164.509 52.353 164.509 55.2564C164.508 58.1603 162.856 60.5269 159.79 60.5269ZM159.79 59.6118C162.199 59.6118 163.214 57.4252 163.214 55.2564C163.214 53.0893 162.199 50.9004 159.79 50.9004C157.381 50.9004 156.365 53.0893 156.365 55.2564C156.364 57.4246 157.38 59.6118 159.79 59.6118Z" fill="#C4C4C4"/>
<path d="M168.05 50.2245L168.09 51.7375C168.789 50.5619 169.881 49.9854 171.357 49.9854C174.045 49.9854 174.941 51.4563 174.941 53.9838V60.2908H173.726V54.4597C173.726 52.591 173.289 50.9981 171.157 50.9981C168.888 50.9981 168.131 53.0083 168.131 54.9966V60.2896H166.916V53.2273C166.916 52.2329 166.897 51.2177 166.857 50.2251H168.05V50.2245Z" fill="#C4C4C4"/>
</g>
<defs>
<clipPath id="clip0">
<rect width="175" height="64.0678" fill="white"/>
</clipPath>
</defs>
</svg>
